<?xml version="1.0" encoding="UTF-8" standalone="no"?>
  <svg
     width="768"
              height="868"
              viewBox="-216 -95 768 868"
              xmlns="http://www.w3.org/2000/svg">
              <path
              style="fill:#83a99c"
              d="M142.628 600.614L142.932 602.777L143.117 603.478L143.475 604.106L144.109 604.614L144.33 605.524L144.386 605.848L146.121 607.758L146.297 608.155L146.391 608.557L146.42 608.894L146.505 609.201L146.804 609.363L147.053 609.454L148.946 609.363L149.97 609.429L150.334 611.005L150.386 611.514L150.249 612.935L150.381 613.648L150.79 614.252L151.527 614.825L156.153 617.125L156.641 617.488L157.066 617.923L157.427 618.45L158.256 620.073L158.614 620.555L159.009 620.909L159.76 621.37L157.52 623.407L155.917 626.233L155.7 626.626L155.591 627.768L154.74 629.343L154.464 629.478L154.109 629.554L153.715 629.388L153.304 629.305L152.749 629.429L152.253 629.797L150.886 631.072L150.346 631.311L149.926 631.271L149.578 630.917L148.747 629.858L148.312 629.461L147.722 629.27L147.458 629.389L147.259 630.003L146.933 630.36L146.137 630.619L145.644 630.903L145.218 631.239L144.109 632.872L127.897 624.355L120.416 617.884L122.681 618.164L124.741 618.078L126.373 617.419L127.479 616.269L129.367 613.376L129.9 612.785L130.494 612.275L134.991 609.982L136.104 608.903L136.08 607.388L134.442 604.346L133.723 602.593L133.568 600.977L133.864 600.242L134.378 599.566L134.811 599.17L135.004 598.993L135.6 598.568L136.614 598.034L136.881 598.234L136.987 598.845L137.513 599.553L138.164 599.775L142.628 600.614Z"
              />
              </svg>

  
    