<?xml version="1.0" encoding="UTF-8" standalone="no"?>
  <svg
     width="768"
              height="868"
              viewBox="-216 -95 768 868"
              xmlns="http://www.w3.org/2000/svg">
              <path
              style="fill:#83a99c"
              d="M158.594 71.2898L158.054 69.055L156.396 66.0981L155.988 65.0325L155.727 63.8581L155.436 61.2289L155.713 55.5759L155.947 54.256L156.367 53.0987L156.866 52.0226L158.38 49.5559L160.024 47.6029L160.557 46.7444L160.967 45.5936L161.033 44.5084L160.863 43.2292L160.387 41.9355L159.897 40.8712L159.058 39.5278L161.133 37.5381L162.762 35.2719L164.804 33.6257L165.543 33.2194L166.268 32.9782L166.822 32.9664L168.231 33.2967L168.508 33.4973L168.672 33.8551L168.678 34.3387L168.537 34.9233L168.04 36.2668L167.926 36.9378L167.947 37.6155L168.115 38.2839L168.379 38.8763L169.161 40.2041L169.425 40.9643L169.596 41.8267L169.88 42.8373L170.399 43.8439L171.681 45.0143L172.524 45.3446L173.378 45.4901L174.06 45.3603L174.73 45.1048L175.454 44.5818L176.144 44.182L177.297 43.7272L177.723 43.469L178.149 43.1505L178.704 42.8464L181.079 42.1111L182.644 42.0076L183.375 42.1963L183.815 42.5908L183.83 43.0928L183.794 43.5621L183.865 44.0129L184.142 44.3826L184.585 44.7364L184.94 45.093L185.104 45.5963L185.061 46.8231L185.181 47.4876L185.593 48.0879L186.297 48.6266L187.712 48.7327L188.522 50.5271L188.962 52.9886L189.282 53.6203L190.429 54.8904L190.699 55.3963L190.784 55.897L190.685 56.4986L189.889 59.0636L187.597 63.3378L187.223 63.8214L186.809 64.2382L186.348 64.5646L185.424 65.0692L184.954 65.4611L184.528 66.1794L184.334 67.1191L184.093 71.4274L181.725 71.8639L181.206 72.1391L180.516 72.4196L180.068 72.7446L179.739 73.1994L179.228 74.1366L178.937 74.4079L177.871 74.8168L177.168 75.1996L174.998 77.0293L174.259 77.4605L173.504 77.6283L172.688 77.6676L172.02 77.7738L171.5 78.0411L171.174 78.53L170.918 79.0661L170.655 79.5314L170.335 79.7647L170.023 79.7267L169.739 79.3479L169.597 78.9154L169.483 78.3977L169.113 77.3727L169.033 76.8733L168.977 75.8811L168.742 74.6963L168.786 73.9229L168.95 73.2139L168.956 72.5795L168.85 72.0775L168.694 71.582L168.615 71.0604L168.594 70.561L168.466 69.9607L168.116 69.3329L167.514 68.6173L166.724 67.8885L165.914 67.3656L165.118 67.2279L164.379 67.3459L162.608 67.9016L161.775 68.3499L160.908 69.3539L159.828 70.9936L158.594 71.2898Z"
              />
              </svg>

  
    