<?xml version="1.0" encoding="UTF-8" standalone="no"?>
  <svg
     width="768"
              height="868"
              viewBox="-216 -95 768 868"
              xmlns="http://www.w3.org/2000/svg">
              <path
              style="fill:#83a99c"
              d="M217.182 600.795L215.505 600.481L214.96 600.614L213.237 601.233L212.535 601.41L211.948 601.373L211.514 601.112L210.915 600.167L209.744 598.647L208.834 597.133L207.24 595.079L207.184 594.695L207.19 594.358L207.105 594.109L206.878 593.957L205.998 593.98L205.607 593.797L205.181 593.251L203.218 589.924L202.813 589.46L202.414 589.214L201.709 589.171L201.155 589.203L198.559 589.758L198.183 588.254L197.579 587.534L196.816 586.967L196.525 586.692L196.348 586.392L196.234 586.037L196.156 585.627L195.992 585.214L195.807 584.869L195.543 584.495L195.015 583.514L194.76 582.82L194.589 582.051L194.519 581.309L194.604 579.47L194.769 578.564L195.044 577.741L196.233 575.133L196.603 574.589L197.327 573.872L197.753 573.522L198.616 572.51L200.151 569.702L200.92 570.379L201.574 570.848L202.079 571.341L202.443 571.797L202.599 572.17L202.699 572.699L202.755 572.88L202.916 573.045L203.174 573.157L203.75 573.257L204.396 573.446L205.095 573.769L206.424 574.571L206.943 574.998L207.241 575.404L207.27 575.736L207.199 576.674L207.044 577.437L207.006 577.844L207.058 578.287L207.207 578.685L207.692 579.287L207.848 579.618L207.89 580.329L208.122 580.629L208.551 580.763L209.429 580.658L209.922 580.364L210.206 579.925L210.306 579.369L210.443 578.895L210.778 578.702L211.225 578.803L211.921 579.409L212.112 579.8L212.077 580.141L211.63 580.681L211.544 580.997L211.786 581.221L212.297 581.301L213.4 580.975L213.926 580.565L214.296 580.17L214.509 579.891L215.134 579.895L216.082 580.16L219.414 581.555L221.626 582.241L223.085 582.309L221.67 585.528L221.544 586.29L221.735 586.768L222.14 587.054L222.587 587.587L223.051 588.409L223.535 589.84L223.591 590.551L223.439 591.116L222.622 592.568L220.683 594.181L220.212 594.344L219.68 594.377L219.119 594.282L218.537 593.995L218.052 593.63L217.64 593.239L217.25 593.033L216.789 592.965L216.192 593.117L215.572 593.421L214.965 593.939L214.804 594.349L214.86 594.769L214.964 595.202L214.921 596.083L214.964 596.459L215.137 596.862L215.414 597.357L215.812 597.896L216.311 598.418L216.737 598.967L217.014 599.412L217.182 600.795Z"
              />
              </svg>

  
    