<?xml version="1.0" encoding="UTF-8" standalone="no"?>
  <svg
     width="768"
              height="868"
              viewBox="-216 -95 768 868"
              xmlns="http://www.w3.org/2000/svg">
              <path
              style="fill:#83a99c"
              d="M319.894 422.915L320.099 426.044L320.341 426.532L320.394 426.856L320.297 427.045L319.864 427.025L319.607 427.526L319.306 427.75L319.148 428.066L319.425 428.68L319.724 427.744L319.764 427.362L321.308 431.618L322.114 432.721L322.319 433.374L322.27 435.939L322.364 436.599L322.606 437.385L323.21 438.728L324.665 440.322L325.086 440.96L325.269 441.61L325.571 443.571L325.1 444.304L325.757 445.93L327.305 448.44L326.444 448.334L326.096 447.888L325.872 447.308L325.402 446.797L324.347 446.595L324.261 447.328L324.787 448.286L326.208 449.076L326.681 449.813L327.93 453.184L328.556 458.468L328.959 459.129L330.171 460.116L330.436 460.562L330.119 464.27L330.279 466.087L329.903 466.26H328.712L328.604 465.756L328.868 463.009L328.242 460.673L327.872 459.873L327.302 460.4L327.171 460.88L326.989 462.656L326.516 463.542L326.463 463.876L326.989 463.653L327.324 464.748L327.627 465.128L328.216 465.235L327.705 465.796L327.134 466.238L326.716 466.828L326.649 467.841L327.201 468.903L327.212 468.951L327.094 469.025L326.032 469.604L323.822 470.145L322.939 470.819L320.045 474.211L319.199 474.818L315.33 476.31L313.76 476.535L312.208 476.532L308.355 475.604L308.175 470.541L307.529 466.677L307.118 465.356L305.979 463.201L303.883 460.313L303.322 459.12L303.151 458.027L303.237 456.801L303.421 455.818L303.465 454.941L303.288 454.325L302.845 453.67L301.474 452.105L300.728 451.064L300.015 449.556L299.645 447.521L299.61 444.448L301.485 437.063L302.011 433.112L301.821 429.815L301.082 426.541L303.151 425.293L304.651 424.625L306.82 423.205L307.832 422.876L310.048 422.587L315.375 422.895L317.864 422.477L318.66 422.418L319.621 422.673L319.894 422.915Z"
              />
              </svg>

  
    