<?xml version="1.0" encoding="UTF-8" standalone="no"?>
  <svg
     width="768"
              height="868"
              viewBox="-216 -95 768 868"
              xmlns="http://www.w3.org/2000/svg">
              <path
              style="fill:#83a99c"
              d="M152.568 688.258L151.983 688.411L151.752 688.604L151.714 688.819L151.785 689.336L151.751 689.555L148.348 696.065L147.484 697.339L146.479 698.471L144.905 699.741L142.977 700.017L141.477 700.649L140.119 702.273L138.834 704.392L137.693 705.592L134.634 706.429L126.455 708.774L125.381 708.607L125.112 708.445L124.888 708.238L124.556 708.053L121.688 707.606L120.603 707.201L120.346 707.054L120.223 706.542L120.581 706.421L121.133 706.62L122.014 706.455L124.265 704.97L124.754 704.674L125.168 704.557L125.489 704.377L125.669 703.89L125.445 703.426L124.968 703.183L124.774 702.968L125.382 702.595L125.968 702.629L128.996 703.23L129.644 703.083L130.405 702.709L131.046 702.199L131.355 701.645L130.262 702.169L128.803 702.561L127.368 702.58L126.32 701.961L126.096 701.45L126.298 701.189L126.824 701.07L127.573 700.983H128.681L129.017 700.903L129.789 700.349V700.062L129.338 699.275L129.208 698.347L129.45 697.473L126.534 698.765L124.643 699.235L123.497 698.644L122.715 697.076L123.21 695.303L123.707 693.673L124.416 691.547L124.273 689.774L124.202 686.513L124.385 682.472L124.754 679.673L125.049 672.843L125.074 670.013L125.381 664.74L125.444 663.812L125.454 663.818L125.478 663.833L127.227 665.048L127.448 665.127L127.821 665.108L129.077 664.463L130.121 664.622L130.655 664.567L131.025 664.445L131.254 664.2L131.645 664.023L132.12 664.066L132.852 664.229L134.14 664.099L134.915 664.369L137.069 665.753L144.067 669.271L145.872 669.787L147.011 671.347L147.025 671.599L146.911 672.009L146.55 672.351L146.18 672.911L146.209 673.274L146.558 673.671L147.054 674.067L147.48 674.516L147.565 674.83L147.402 675.183L146.968 675.72L146.468 676.492L145.924 677.662L145.93 678.58L146.029 679.102L146.243 679.333L146.48 679.424L146.757 679.42L147.041 679.445L147.297 679.513L147.56 679.758L147.624 680.116L147.581 680.561V681.46L148.221 683.865L148.655 684.658L149.133 685.198L149.723 685.448L151.288 685.922L152.013 686.585L152.304 687.085L152.568 688.258Z"
              />
              </svg>

  
    