<?xml version="1.0" encoding="UTF-8" standalone="no"?>
  <svg
     width="768"
              height="868"
              viewBox="-216 -95 768 868"
              xmlns="http://www.w3.org/2000/svg">
              <path
              style="fill:#83a99c"
              d="M152.419 640.134L149.116 636.629L147.899 635.56L145.551 634.04L144.109 632.873L145.218 631.24L145.644 630.904L146.137 630.62L146.933 630.362L147.259 630.004L147.458 629.39L147.722 629.271L148.311 629.463L148.747 629.86L149.578 630.919L149.926 631.273L150.346 631.312L150.886 631.073L152.253 629.798L152.749 629.43L153.304 629.307L153.715 629.389L154.109 629.556L154.464 629.48L154.74 629.345L155.591 627.769L155.7 626.628L155.917 626.234L157.52 623.409L159.76 621.372L161.994 622.74L162.605 622.921L164.497 623.036L165.116 623.171L165.656 623.429L166.125 623.787L168.18 626.13L168.897 626.764L169.699 627.275L171.895 628.118L171.951 628.13L173.178 629.729L173.462 630.928L173.506 631.039L173.591 631.111L174.014 631.245L174.302 631.393L174.563 631.603L174.801 631.849L174.956 632.203L175.013 632.64L174.956 633.435L174.719 634.164L174.331 634.711L173.433 635.349L172.816 635.612L172.011 635.713L170.576 635.501L169.355 635.104L168.251 634.581L166.849 633.627L166.385 633.522L165.876 633.691L165.485 634.037L165.322 634.391L165.45 634.857L165.521 635.5L164.769 636.428L161.922 637.428L157.079 638.488L152.419 640.134Z"
              />
              </svg>

  
    