<?xml version="1.0" encoding="UTF-8" standalone="no"?>
  <svg
     width="768"
              height="868"
              viewBox="-216 -95 768 868"
              xmlns="http://www.w3.org/2000/svg">
              <path
              style="fill:#83a99c"
              d="M157.57 14.3284L157.575 14.5735L157.777 15.5015L158.321 16.2879L158.982 16.5658L162.228 16.7034L163.517 17.0992L164.679 17.0691L165.155 17.3758L166.024 18.2828L166.571 18.5502L167.103 18.7219L167.628 18.9761L168.137 19.4847V19.4926L168.146 19.5004H168.151L168.757 20.4481L171.337 23.3788L172.171 24.0053L172.555 23.8506L172.754 23.4876L172.916 23.0878L173.186 22.8309L173.673 22.7562L174.454 22.9685L174.891 23.0236L176.34 22.8584L177.091 22.6238L177.676 22.2503L178.41 20.7207L178.833 20.4834L182.423 20.2016L184.922 20.5018L186.659 20.9487L188.142 21.8951L189.087 23.6173L189.274 25.4483L189.592 26.0303L190.572 26.4877L191.543 26.6673L192.45 26.6634L193.334 26.5297L199.856 24.7812L200.578 24.3762L200.772 23.2569L201.221 22.9672L201.835 23.152L202.557 23.464L204.849 24.0433L205.524 24.4666L205.983 25.1823L206.324 25.9726L206.838 26.5755L207.863 26.7381L208.189 26.5506L208.559 25.8743L208.966 25.7249L209.454 25.8468L209.771 26.1469L210.264 26.8062L211.628 27.9059L212.367 29.1982L212.337 29.3214L213.012 29.3437L214.083 29.2428L215.063 29.3437L215.471 29.9807L215.14 30.5889L213.626 31.4788L213.083 31.969L212.759 32.842L212.575 34.4004L212.164 35.3008L211.179 36.8488L210.84 37.605L210.038 40.1569L209.475 40.6694L208.488 40.6851L207.742 40.1229L207.258 39.2683L206.713 38.6405L205.813 38.7506L205.316 39.3692L204.932 40.3981L203.883 45.4613L203.678 45.8716L203.17 46.6147L203.014 47.16V47.6803L203.295 48.8862L203.292 48.8888L203.136 49.0303L201.625 49.8469L200.675 50.0946L199.642 50.2375L198.406 50.2689L197.132 50.1418L195.803 49.6228L191.984 47.0276L191.337 46.8035L190.691 46.7654L189.888 47.0119L189.21 47.3251L187.711 48.7236L186.295 48.6175L185.591 48.0788L185.18 47.4785L185.059 46.8139L185.102 45.5871L184.939 45.0838L184.583 44.7273L184.14 44.3734L183.864 44.0038L183.793 43.5529L183.828 43.0837L183.814 42.5817L183.374 42.1872L182.642 41.9985L181.077 42.102L178.702 42.8373L178.148 43.1414L177.722 43.4599L177.296 43.7181L176.142 44.1729L175.453 44.5727L174.728 45.0956L174.058 45.3512L173.377 45.481L172.522 45.3355L171.68 45.0052L170.398 43.8347L169.879 42.8281L169.594 41.8176L169.424 40.9552L169.159 40.1949L168.378 38.8672L168.113 38.2748L167.945 37.6063L167.924 36.9287L168.038 36.2576L168.535 34.9142L168.677 34.3296L168.67 33.846L168.506 33.4881L168.23 33.2876L166.821 32.9573L166.266 32.9691L165.542 33.2103L164.802 33.6166L162.76 35.2628L161.131 37.529L159.056 39.5186L156.858 36.0034L155.47 32.6611L154.789 31.5981L153.752 30.45L146.917 26.4838L146.605 25.9333L146.875 25.4064L149.499 23.5229L150.338 22.6186L151.048 21.7089L152.002 20.1636L152.436 19.6236L152.883 19.2108L153.352 18.9984L153.88 18.9748L154.411 19.1111L154.954 19.1911L155.43 18.8307L155.849 18.0351L156.419 14.9261L156.575 14.7046L156.751 14.5486L156.945 14.4438L157.57 14.3284Z"
              />
              </svg>

  
    