<?xml version="1.0" encoding="UTF-8" standalone="no"?>
  <svg
     width="768"
              height="868"
              viewBox="-216 -95 768 868"
              xmlns="http://www.w3.org/2000/svg">
              <path
              style="fill:#83a99c"
              d="M249.448 515.169L249.342 513.765L249.383 512.503L249.26 511.272L248.637 509.963L247.351 508.494L247.034 507.939L246.849 507.234L246.679 505.809L246.162 504.623L246.059 504.101L246.139 503.592L246.411 503.129L246.649 502.941L246.76 502.687L246.746 502.38L246.632 502.037L245.916 501.509L245.798 500.836L250.435 489.523L251.834 488.82L253.179 488.055L255.042 486.601L255.447 486.342L255.902 486.186L261.449 485.41L267.246 485.6L268.048 485.488L268.83 485.254L271.939 483.794L272.742 483.617L273.701 483.565L275.451 483.77L287.228 487.976L288.279 488.728L289.292 490.025L289.899 491.137L290.425 492.362L292.16 498.38L294.109 500.314L300.808 502.031L303.766 506.761L304.398 507.48L305.338 508.231L307.994 509.925L310.008 510.929L311.126 511.3L314.915 512.181L318.059 513.482L314.992 516.168L314.623 516.377L314.197 516.474L313.257 516.468L312.823 516.508L312.468 516.624L312.077 516.828L311.687 517.371L311.275 518.229L310.605 520.205L310.549 521.138L310.629 521.831L310.819 522.218L310.805 522.737L310.62 523.414L310.15 524.497L309.681 526.062L309.382 526.499L308.786 526.734L308.222 526.585L306.574 525.664L306.112 525.509L305.651 525.487L305.166 525.563L304.669 525.754L303.842 526.191L303.496 526.28L303.197 526.281L302.179 526.076L301.824 526.105L301.53 526.341L301.284 526.803L301.078 527.763L300.978 529.458L301.149 531.487L301.753 534.589L299.804 535.734L299.087 535.934L298.183 536.072L297.373 535.925L295.104 534.96L294.159 534.717L293.413 534.798L292.717 535.076L290.051 537.363L289.274 537.761L288.464 537.836L286.536 537.498L285.939 537.566L285.308 537.885L284.602 538.402L283.231 539.093L282.554 539.536L282.157 539.966L282.028 540.362L281.908 541.131L281.638 541.433L281.347 541.49L281.07 541.406L280.715 541.222L280.275 541.098L279.299 541.054L277.985 540.751L277.322 540.768L276.875 540.959L276.391 541.33L275.915 541.675L276.107 541.157L276.192 540.767L276.356 540.339L276.479 539.878L276.422 539.383L276.228 539.195L275.169 538.423L274.353 536.983L274.036 536.409L273.178 535.951L272.653 535.164L271.881 534.812L270.994 534.614L270.292 534.553L269.554 534.399L269.017 534.015L267.831 532.205L267.54 531.44L267.372 530.585L267.312 529.572L267.562 528.867L268.155 528.336L268.874 528.145L269.509 528.466L269.979 527.888L270.549 526.897L270.796 525.965L270.292 525.552L270.035 525.407L269.443 524.765L266.974 523.951L266.41 523.568L266.309 523.274L266.354 522.666L266.477 522.237L264.768 521.015L264.278 516.74L263.296 514.98H255.2L249.448 515.169Z"
              />
              </svg>

  
    