<?xml version="1.0" encoding="UTF-8" standalone="no"?>
  <svg
     width="768"
              height="868"
              viewBox="-216 -95 768 868"
              xmlns="http://www.w3.org/2000/svg">
              <path
              style="fill:#83a99c"
              d="M249.448 515.169L255.197 514.979H263.293L264.275 516.739L264.765 521.013L266.474 522.236L266.351 522.665L266.306 523.273L266.407 523.567L266.971 523.949L269.44 524.763L270.033 525.405L270.29 525.551L270.793 525.964L270.546 526.896L269.976 527.887L269.506 528.465L268.871 528.143L268.152 528.335L267.559 528.866L267.309 529.571L267.369 530.584L267.537 531.439L267.828 532.204L269.014 534.014L269.552 534.398L270.29 534.551L270.991 534.613L271.878 534.811L272.65 535.162L273.176 535.95L274.033 536.407L274.35 536.981L275.167 538.422L276.226 539.194L276.42 539.381L276.476 539.877L276.353 540.338L276.189 540.765L276.104 541.156L275.912 541.674L275.746 542.068L274.87 542.216L272.99 541.939L272.241 542.279L271.649 542.789L271.173 543.117L270.771 542.899H270.46L270.325 543.444L269.917 544.51L269.829 544.994L269.82 545.636L269.861 545.762L270.038 545.787L270.46 546.127L270.882 546.479L271.173 546.632L271.343 546.898L271.446 548.082L271.583 548.424L272.024 549.004L273.122 550.112L273.302 550.458L273.465 550.969L273.839 551.216L274.258 551.366L274.552 551.593L274.777 552.425L274.522 553.659L274.61 554.477L274.169 555.793L273.274 557.146L271.645 558.812L270.913 559.392L270.43 559.578L270.195 559.398L269.919 559.145L269.746 558.87L269.519 558.587L269.185 558.386L268.68 558.317L267.16 558.558L266.625 558.476L266.291 558.165L266.089 557.676L266.042 557.085L266.085 556.567L266.064 556.119L265.914 555.747L265.638 555.46L265.247 555.263L264.772 555.162L264.31 555.184L262.98 555.398L262.284 555.608L260.716 555.869L260.391 555.878L260.065 555.817L259.75 555.637L259.177 555.224L259.036 555.077L258.898 554.892L258.784 554.647L258.72 554.357L258.641 553.664L258.577 553.421L258.421 553.193L258.087 553.069L257.618 553.022L256.869 553.149L256.458 553.334L256.202 553.609L255.947 554.301L255.67 554.732L253.21 556.966L250.522 558.769L249.896 558.983L248.487 559.178L247.713 559.414L247.144 559.787L246.531 560.286L246.019 560.522L245.025 560.757L244.464 560.803L243.979 560.774L242.593 560.414L243.048 558.841L243.042 558.271L242.878 557.812L242.487 557.253L242.123 556.591L241.834 555.79L241.522 553.646L241.186 552.619L240.532 551.558L239.807 550.799L237.212 549.024L236.53 547.844L236.037 545.726L235.192 534.736L235.143 534.228L237.358 533.533L239.376 533.353L240.458 534.015L241.832 536.158L242.713 536.936L243.76 536.878L245.309 534.769L246.415 534.004L247.598 533.513L248.273 532.668L248.637 531.601L248.866 530.449L250.214 526.622L250.219 525.523L250.214 525.516L249.891 524.906L249.988 524.396L250.273 523.889L250.523 523.29L250.684 521.868L250.599 520.342L249.448 515.169Z"
              />
              </svg>

  
    