<?xml version="1.0" encoding="UTF-8" standalone="no"?>
  <svg
     width="768"
              height="868"
              viewBox="-216 -95 768 868"
              xmlns="http://www.w3.org/2000/svg">
              <path
              style="fill:#83a99c"
              d="M279.695 349.739L279.196 350.364L277.603 351.682L277.044 352.754L277.07 354.139L277.854 354.884L278.864 355.474L279.576 356.398L280.289 355.692L280.651 355.462L280.986 355.551L281.37 357.203L281.457 357.343L281.214 358.063L280.741 358.74L280.155 359.294L279.577 359.654L280.438 359.38L281.277 358.908L281.974 358.722L282.393 359.328L281.944 356.879L281.613 356.22L281.564 355.516L281.877 354.648L281.859 353.955L280.83 353.762V353.407L281.192 353.14L281.461 352.834L281.647 352.488L281.77 352.104L282.106 352.252L282.172 352.361L282.206 352.346L282.393 352.104H282.706L283.108 352.512L283.646 352.939L284.298 353.274L285.07 353.407L285.108 353.177L285.395 352.732L285.713 352.423L285.866 352.605L285.951 352.783L286.492 353.406L285.977 353.85L285.474 354.153L285.082 354.5L284.925 355.065L284.5 354.719L283.336 354.964L282.706 354.709L282.374 356.445L282.684 358.326L283.318 360.037L283.463 360.304L283.437 360.308L279.31 359.934L278.928 359.961L275.175 360.931L274.249 361.005L273.063 360.874L272.074 360.481L271.257 359.699L271.028 359.042L271.045 358.601L271.101 358.282L271.094 358.01L270.995 357.634L270.938 357.255L270.847 355.725L270.57 355.538L270.001 355.54L267.498 356.044L263.941 355.65L265.3 354.464L266.899 351.266L267.604 350.179L268.379 349.53L269.276 349.305L271.549 349.185L272.447 349.29L274.387 349.929L276.612 350.213L279.659 349.748L279.695 349.739Z"
              />
              </svg>

  
    