<?xml version="1.0" encoding="UTF-8" standalone="no"?>
  <svg
     width="768"
              height="868"
              viewBox="-216 -95 768 868"
              xmlns="http://www.w3.org/2000/svg">
              <path
              style="fill:#83a99c"
              d="M142.628 600.614L144.652 600.993L145.357 601.453L146.93 602.836L147.611 603.077L148.052 602.637L149.416 599.851L151.277 597.676L151.855 597.283L152.064 597.389L153.361 597.75L154.389 598.271L154.759 598.314L157.039 597.829L157.08 598.081L157.208 598.689L157.343 598.942L157.678 599.301L158.174 599.699L159.413 600.478L160.102 601.165L162.99 604.616L172.732 613.847L175.342 615.753L177.161 616.386L177.175 617.883L176.943 618.695L176.515 619.777L172.364 625.018L171.923 625.314L171.659 625.749L171.509 626.139L171.773 627.892L171.955 628.128L171.899 628.117L169.703 627.274L168.901 626.763L168.184 626.128L166.129 623.786L165.66 623.428L165.12 623.17L164.501 623.035L162.608 622.92L161.998 622.739L159.764 621.37L159.013 620.909L158.617 620.555L158.259 620.073L157.431 618.45L157.069 617.923L156.645 617.488L156.157 617.125L151.53 614.825L150.794 614.252L150.385 613.648L150.252 612.935L150.39 611.514L150.338 611.005L149.973 609.429L148.95 609.363L147.057 609.454L146.808 609.363L146.509 609.201L146.424 608.894L146.395 608.557L146.301 608.155L146.125 607.758L144.39 605.848L144.333 605.524L144.113 604.615L143.479 604.106L143.121 603.478L142.936 602.777L142.628 600.614Z"
              />
              </svg>

  
    