<?xml version="1.0" encoding="UTF-8" standalone="no"?>
  <svg
     width="768"
              height="868"
              viewBox="-216 -95 768 868"
              xmlns="http://www.w3.org/2000/svg">
              <path
              style="fill:#83a99c"
              d="M224.598 613.058H224.307L224.005 614.367L223.971 615.763L223.39 614.956L223.054 613.969L222.181 613.027L221.36 612.327L220.751 611.734L220.221 611.33L219.772 610.953H219.162L218.554 611.249L218.024 611.519L217.204 611.384L216.383 610.792L215.854 610.279L215.298 609.983L214.875 609.794L214.452 609.633L213.948 609.498L213.564 609.305L213.521 608.744L213.535 608.528L213.379 607.927L213.309 606.858L213.124 606.305L213.294 606.176L213.427 606.165L215.064 607.052L215.251 607.103L215.365 607.083L215.507 607.005L215.918 606.654L216.145 606.506L216.471 606.362L216.859 606.253L217.317 606.21L217.751 606.234L218.091 606.329L218.441 606.481L218.758 606.658L218.96 606.719L219.095 606.723L219.187 606.691L219.251 606.643L219.272 606.582L219.266 606.487L219.209 606.151V606.031L219.253 605.945L219.331 605.844L219.395 605.727L219.445 605.445L219.431 605.033L219.232 604.254L217.96 601.862L217.183 600.798L217.013 599.419L216.736 598.973L216.31 598.424L215.811 597.902L215.412 597.364L215.136 596.868L214.963 596.466L214.919 596.09L214.963 595.209L214.859 594.775L214.803 594.356L214.964 593.945L215.571 593.428L216.191 593.124L216.787 592.972L217.248 593.04L217.639 593.246L218.051 593.636L218.536 594.002L219.118 594.289L219.679 594.383L220.211 594.35L220.681 594.188L222.621 592.574L223.438 591.122L223.59 590.557L223.533 589.847L223.05 588.416L222.586 587.594L222.139 587.06L221.734 586.775L221.542 586.296L221.668 585.535L223.084 582.316L224.117 581.807L224.393 581.557L224.592 581.15L224.756 580.894L225.132 580.531L225.878 579.998L226.832 579.015L227.316 578.374L227.785 577.478L228.375 576.748L228.54 576.454L228.602 576.113L228.669 575.293L228.825 574.702L229.08 574.095L229.479 573.348L230.16 572.763L231.126 572.227L235.423 570.877L238.837 569.103L240.592 569.379L241.874 569.346L242.229 569.416L242.464 569.56L242.57 569.779L242.626 570.014L242.641 570.323L242.597 571.193L242.644 571.543L242.938 571.921L243.449 572.101L244.312 572.303L245.263 572.639L245.722 573.016L245.909 573.432L245.866 573.686L245.731 573.893L245.305 574.297L245.111 574.558L245.008 574.95L245.026 575.428L245.27 576.07L245.625 576.389L246.153 576.545L246.854 576.512L248.839 576.758L252.631 578.667L252.282 578.739L252.068 578.858L251.732 579.104L251.286 579.599L250.807 580.28L249.821 582.056L249.174 583.557L248.135 585.246L247.906 585.735L247.447 587.041L246.557 588.599L246.046 589.882L245.861 591.129L245.477 591.915L244.723 593.122L244.447 593.784L244.93 594.499L245.769 595.15L246.558 595.495L247.506 595.589L248.301 595.491L249.05 595.556L249.675 595.929L250.244 596.51L250.784 597.416L251.218 598.351L251.665 599.68L251.844 601.11L251.773 602.521L251.167 603.836L250.498 604.81L248.372 606.945L246.819 604.97L246.355 604.84L245.683 604.825L245.137 605.223L244.105 606.272L241.12 609.963L240.393 610.317L239.668 610.364L239.028 610.147L238.453 609.726L238.068 609.198L237.961 608.616L237.968 607.971L238.096 607.364L237.933 606.806L237.577 606.347L236.914 606.086L236.36 606.115L235.742 606.321L231.619 608.267L231.399 608.544L231.378 608.851L231.407 609.303L231.369 609.747L231.278 610.201L230.814 610.714L230.047 611.185L226.557 612.506L226.173 612.528L225.874 612.576L225.86 612.578L225.785 611.597L225.304 610.834L223.972 609.589L223.771 610.27L224.244 610.792L224.892 611.227L225.22 611.646L224.818 612.804L224.815 613.063L224.598 613.058Z"
              />
              </svg>

  
    