<?xml version="1.0" encoding="UTF-8" standalone="no"?>
  <svg
     width="768"
              height="868"
              viewBox="-216 -95 768 868"
              xmlns="http://www.w3.org/2000/svg">
              <path
              style="fill:#83a99c"
              d="M103.803 34.5498L107.794 31.935L108.694 30.9559L111.659 28.4944L112.478 27.5769L112.584 27.417L112.989 27.4996L113.004 27.725L112.937 27.9963L113.093 28.2178L113.36 28.4013L113.542 28.5993L113.76 28.7683L114.182 28.8679L114.449 28.7605L114.916 28.2047L115.162 28.0658L116.043 28.1759L117.587 28.6648L118.526 28.6032L119.33 28.3017L119.999 27.8626L120.589 27.265L122.177 24.9962L122.696 24.4247L124.96 23.0367L125.159 22.5373L125.116 21.5359L123.783 14.9995L124.403 14.47L125.524 14.2917L126.686 13.3035L126.88 12.6114L126.936 11.8145L127.088 11.1133L127.584 10.7057L128.221 10.7738L129.424 11.5L130.069 11.5747L130.533 11.2981L132.194 9.7764L133.764 8.9559L135.182 7.95846L135.843 7.67798L139.57 6.61632L139.731 6.46952L139.817 6.26112L139.935 6.06845L140.176 5.96359L140.304 6.01733L140.642 6.27685L140.787 6.33321L141.137 6.41709L141.404 6.58355L141.73 6.69496L142.249 6.60452L143.012 6.0383L143.303 5.22305L143.476 4.27804L143.855 3.32255L144.295 2.80351L145.877 1.37617L146.501 1L147.349 1.02359L147.712 1.59637L147.909 2.47453L148.271 3.41167L148.811 4.09848L149.526 4.72892L150.263 5.23092L150.895 5.53369L151.335 5.56121L151.681 5.43276L152.039 5.38296L152.562 5.6464L152.789 5.91641L153.39 7.04229V7.04622L154.323 8.99785L154.759 9.57062L156.743 10.9049L156.934 11.1343L157.253 11.5144L157.553 12.4738L157.57 14.3297L156.945 14.4556L156.751 14.5604L156.575 14.7164L156.419 14.9379L155.849 18.0469L155.43 18.8425L154.954 19.2029L154.411 19.1229L153.88 18.9866L153.352 19.0102L152.883 19.2226L152.436 19.6354L152.002 20.1754L151.048 21.7207L150.338 22.6304L149.499 23.5347L146.875 25.4182L146.605 25.9451L146.917 26.4956L153.752 30.4617L154.789 31.6099L155.47 32.6729L156.858 36.0152L159.056 39.5304L155.975 40.0953L151.681 39.3115L148.787 39.0966L143.814 37.2144L142.053 36.774L141.272 36.8959L140.849 37.3219L140.586 38.9013L140.366 39.7467L139.244 42.8347L138.76 43.6552L137.43 45.1952L136.833 46.1036L136.393 47.0119L136.067 47.9464L135.283 51.1969L134.913 51.7421L134.508 51.9309L134.001 51.9112L132.68 51.3922L131.949 51.2611L131.089 51.3686L130.554 51.809L130.298 52.4145L130.234 53.121L130.246 53.7986L130.213 54.4265L130.043 55.0149L129.802 55.6048L127.955 58.4883L126.091 60.4465L124.782 60.5697L123.716 60.3652L122.513 59.8947L121.532 58.9483L120.373 57.0636L119.662 56.306L118.817 55.783L117.843 55.589L117.045 55.5746L116.02 56.1054L115.248 57.1343L114.925 57.3558L114.649 57.2969L114.435 56.9875L114.342 56.3256L114.413 55.6559L114.782 54.1158L114.773 53.294L114.47 52.4539L113.789 51.5508L113.128 50.9544L112.439 50.5088L110.901 49.7748L109.329 48.8088L108.795 48.1391L108.561 47.2163L108.575 45.7588L108.469 45.0393L108.218 44.1126L107.635 42.8203L107.389 41.4558L107.474 40.811L107.834 40.5501L108.697 40.5384L109.009 40.4925L109.186 40.309L109.156 39.9957L108.871 39.4754L107.195 37.4019L106.91 36.9706L106.57 36.6023L106.086 36.3363L104.677 36.0636L104.172 35.7478L103.923 35.4568L103.788 34.8368L103.803 34.5498Z"
              />
              </svg>

  
    