<?xml version="1.0" encoding="UTF-8" standalone="no"?>
  <svg
     width="768"
              height="868"
              viewBox="-216 -95 768 868"
              xmlns="http://www.w3.org/2000/svg">
              <path
              style="fill:#83a99c"
              d="M144.818 252.051L144.34 252.104L143.856 251.956L143.551 251.673L143.148 250.925L142.885 250.585L140.659 249.187L140.224 248.557L140.194 247.553L140.481 246.913L140.51 246.329L139.712 245.5L138.27 244.44L137.207 243.407L136.712 242.063L136.953 240.061L137.651 237.383L138.253 235.949L138.919 235.075L139.477 235.001L140.015 235.177L140.473 235.109L140.812 234.303V234.135L142.006 234.087L145.617 233.774L150.709 235.392L151.941 235.624L153.07 235.554L154.124 235.297L156.118 235.164L161.212 235.856L161.451 235.866L162.032 235.917L162.346 236.142L163.374 236.463L164.249 236.12L164.931 234.956L164.817 234.983L164.699 234.685L164.619 234.274V233.964L164.818 233.772L165.135 233.694L165.424 233.546L165.556 233.138L165.795 232.711L166.349 232.384L167.449 231.986L168.332 231.561L168.324 230.425L168.183 227.496L168.075 227.332L168.948 227.899L169.235 229.279L169.288 230.684L169.486 231.324L169.799 231.857L170.896 235.316L173.339 239.327L174.99 241.156L176.557 241.255L176.68 242.156L176.985 243.112L177.396 243.974L177.832 244.584L178.895 245.39L179.242 245.725L180.969 247.957L183.37 249.995L183.918 250.693L184.011 251.304L183.152 251.505L183.603 251.852L184.375 251.694L185.367 251.358L186.467 251.176L187.172 251.459L189.577 253.333L189.894 253.514L190.887 253.884L191.282 254.143L192.566 255.82L194.098 256.983L194.728 257.586L195.094 258.455H194.758L194.311 258.167L193.723 258.293L193.193 258.673L192.91 259.14L193.507 259.441L193.708 259.29L193.876 259.222L194.469 259.14L194.2 259.712L194.289 260.175L194.76 261.116L194.771 260.52L194.905 259.951L195.117 259.469L195.378 259.138L195.863 258.891L196.162 258.994L196.475 259.168L196.975 259.137L197.363 258.863L198.228 257.793L198.798 258.027L198.731 258.521L198.228 259.44L198.474 260.467L198.989 261.475L202.637 266.052L202.25 266.093L200.266 265.637L196.562 265.288L194.913 265.551L194.094 266.165L193.583 266.877L193.128 267.667L192.664 268.169L191.634 268.39L190.184 268.316L185.227 267.405L182.389 266.549L181.741 266.115L181.541 265.748L181.548 265.338L181.633 264.861L181.59 264.237L181.326 263.57L180.843 262.82L180.174 262.116L179.322 261.528L178.262 261.053L175.532 260.567L173.903 260.627L172.453 260.9L170.66 261.642L167.681 262.519L166.8 262.878L165.605 263.972L164.31 264.878L162.058 265.251L160.697 265.464L160.073 264.191V264.183L158.99 263.58L158.676 263.239L158.503 262.766L158.335 261.668L158.089 261.137L157.705 260.767L156.904 260.326L156.531 259.991L155.777 258.289L155.59 258.149L155.068 258.024L154.857 257.847L154.895 257.736L154.998 257.55L155.093 257.298L155.078 257.004L154.709 255.694L154.43 255.261L153.728 254.694L152.81 254.316L151.832 254.252L151.005 254.622L150.735 255.069L150.526 256.138L150.339 256.479L149.92 256.755L149.791 256.703L149.689 256.501L149.351 256.332L148.626 256.143L147.79 255.784L147.044 255.255L146.56 254.553L146.53 254.007L146.826 252.85L146.755 252.313L146.445 251.797L146.239 251.764L146.014 251.92L144.818 252.051Z"
              />
              </svg>

  
    