<?xml version="1.0" encoding="UTF-8" standalone="no"?>
  <svg
     width="768"
              height="868"
              viewBox="-216 -95 768 868"
              xmlns="http://www.w3.org/2000/svg">
              <path
              style="fill:#83a99c"
              d="M221.778 621.71L222.762 622.347L223.274 622.775L223.658 623.298L221.42 623.842L220.507 624.251L219.899 624.89H219.563V624.04L219.343 623.398L219.082 622.869L218.937 622.346L219.06 621.496L219.765 620.497L219.9 619.771H219.564V620.435L219.173 619.343L219.583 618.652L220.426 618.212L221.377 617.891L222.321 618.551L222.105 619.968L221.128 622.346H221.468L221.778 621.71ZM220.525 617.371L220.256 617.86L219.652 617.694L219.003 617.244L218.623 616.879L218.556 616.738L218.098 616.004L217.997 615.952L218.098 615.535L218.522 615.162L218.623 614.826L218.799 613.863L218.646 613.421L217.997 613.058V612.771L218.5 612.635L219.093 612.561L219.562 612.612L219.64 612.948L220.703 613.657L220.93 614.044L221.132 614.159L221.352 614.248L221.464 614.332L221.498 614.681L221.371 614.864L221.207 614.983L221.124 615.139L221.239 615.652L221.437 616.16L221.474 616.593L221.124 616.877L220.882 616.721L220.618 616.271L220.212 615.315H219.899L220.014 615.896L220.436 616.749L220.525 617.371ZM223.971 615.763L224.329 617.011L225.22 617.86L224.862 618.052L224.44 618.28L223.422 620.079L223.03 620.436L222.735 620.201L222.802 619.792L222.984 619.299L223.029 618.818L222.831 618.33L222.614 618.113L222.357 617.923L222.089 617.517L221.842 616.61L221.865 615.775L222.089 614.189L219.68 612.138L219.27 611.787L218.635 612.112L217.758 612.561L216.841 612.808L216.427 612.294L216.18 611.787L215.588 611.097L215.234 610.79L214.88 610.484L214.268 610.194L214.07 610.271L214.029 610.288L213.126 610.785L212.847 610.99L212.635 611.507L212.948 611.817L213.407 612.037L213.641 612.293L213.742 612.747L214.268 614.044L214.111 614.578L213.876 614.841L213.597 615.024L213.328 615.314L213.059 616.065L212.966 616.444L212.727 616.024L212.736 615.609L212.926 614.219L212.949 613.376L212.656 612.733L212.08 612.179L211.443 611.819L210.833 611.675L210.361 611.729L209.92 611.964L209.494 612.278L209.047 612.496L208.443 612.397L207.974 612.034L207.367 611.387L206.856 611.021L204.819 610.164L202.84 609.096L201.992 608.471L201.552 607.877L201.637 607.273L201.95 606.49L202.816 604.774L203.01 603.692L202.916 602.508L202.32 600.893L201.603 599.905L200.728 599.057L199.895 598.504L198.844 597.951L197.044 597.255L195.538 596.389L196.803 595.088L197.214 594.451L197.74 593.426L198.055 592.521L198.559 589.756L201.154 589.202L201.709 589.169L202.414 589.213L202.812 589.459L203.217 589.923L205.181 593.249L205.607 593.796L205.997 593.978L206.878 593.956L207.105 594.108L207.19 594.357L207.184 594.694L207.24 595.078L208.834 597.132L209.743 598.646L210.915 600.166L211.514 601.111L211.948 601.372L212.535 601.409L213.236 601.232L214.96 600.613L215.505 600.479L217.182 600.794L217.959 601.858L219.23 604.25L219.429 605.029L219.444 605.442L219.394 605.723L219.33 605.84L219.251 605.941L219.208 606.027V606.147L219.264 606.484L219.271 606.578L219.25 606.64L219.186 606.687L219.094 606.719L218.959 606.716L218.757 606.654L218.44 606.477L218.09 606.325L217.749 606.231L217.315 606.206L216.858 606.249L216.47 606.358L216.143 606.502L215.917 606.65L215.505 607.001L215.364 607.079L215.25 607.1L215.062 607.048L213.425 606.161L213.293 606.172L213.122 606.301L213.307 606.854L213.378 607.923L213.534 608.524L213.52 608.741L213.563 609.302L213.947 609.494L214.45 609.629L214.873 609.79L215.297 609.979L215.853 610.275L216.382 610.788L217.203 611.38L218.023 611.515L218.553 611.245L219.161 610.949H219.77L220.22 611.327L220.749 611.73L221.359 612.323L222.179 613.023L223.052 613.965L223.389 614.952L223.971 615.763ZM225.873 618.816L225.202 619.154L224.862 619.412L224.597 619.773H224.306L224.44 619.037L224.887 618.662L225.346 618.476L225.428 618.442L225.625 618.327L225.873 618.816ZM218.937 620.726L218.195 620.543L217.572 620.281L217.012 620.166L216.431 620.435L216.687 620.563L216.754 620.564L216.821 620.497L217.056 620.433L217.761 621.09L218.264 622.057L218.23 622.929L217.369 623.297L216.284 622.854L215.15 621.808L214.188 620.543L213.644 619.452L213.476 618.712L213.458 618.155L213.644 616.879L213.584 616.852L213.475 616.526L213.329 615.779L213.487 615.635L214.255 615.513L214.55 615.315L214.885 614.154L214.561 613.078L213.331 611.148L214.375 611.136L214.808 611.285L215.218 611.679L215.636 612.366L215.905 612.65L217.15 613.003L217.724 613.572L217.997 614.293V614.966L217.673 615.264L217.461 615.581L217.372 616.111L217.479 616.311L217.986 617.061L218.166 617.226L218.636 617.53L218.826 618.171L218.487 618.74L217.372 618.816V619.134L218.099 619.168L218.465 619.487L218.938 620.435L218.937 620.726Z"
              />
              </svg>

  
    