<?xml version="1.0" encoding="UTF-8" standalone="no"?>
  <svg
     width="768"
              height="868"
              viewBox="-216 -95 768 868"
              xmlns="http://www.w3.org/2000/svg">
              <path
              style="fill:#83a99c"
              d="M331.399 538.421L331.761 538.575L332.03 538.798L332.216 539.069L332.339 539.379L332.135 539.56L331.635 539.904L331.401 540.018L331.154 539.709L330.859 539.533L330.516 539.522L330.12 539.697L330.254 539.797L330.313 539.789L330.357 539.819L330.436 540.017L329.53 539.933L328.692 539.477L328.017 538.894L327.592 538.419V538.098L327.897 538.195L328.558 538.312L328.871 538.419L328.853 538.253L328.871 537.75L329.71 538.088L331.399 538.421ZM333.976 509.657L333.659 509.73L333.253 510.097L333.558 510.485L333.603 511.048L333.566 511.706L333.592 512.372L335.632 516.359L336.341 517.162L337.034 517.183L337.865 517.814L338 517.999L337.889 518.364L337.62 518.493L337.307 518.577L337.034 518.818L336.925 519.518L337.083 521.437L337.034 522.024L336.527 522.312L336.054 521.783L335.472 520.393L335.292 520.168L335.088 520.034L334.916 519.805L334.841 519.296L334.983 519.208L335.785 518.469V518.177L334.841 516.543L334.756 516.988L334.499 517.218L334.103 517.275L333.592 517.185L333.772 517.603L333.835 518L333.772 518.4L333.592 518.818L333.324 518.342L333.01 518.008L332.586 517.828L332.026 517.827L332.854 516.643L332.966 516.398L333.164 516.261L333.592 516.097L334.021 515.837L334.219 515.407L334.059 514.66L333.257 513.593L332.966 513.015V511.587L332.798 511.38L332.291 511.496L332.133 511.787L332.074 512.158L331.858 512.517L330.28 513.562L329.833 513.979L328.703 515.375L328.055 515.995L327.45 516.254L327.054 516.56L325.741 518.469L325.727 518.916L325.884 520.741L325.537 521.059L325.577 521.779L325.741 522.539V522.985L325.872 523.032L325.984 523.03L326.047 523.088L326.028 523.306H326.364L326.521 522.826L326.6 522.279L326.794 521.844L327.305 521.701V521.413H326.992V521.059L327.764 521.328L327.674 521.964L327.25 522.741L326.993 523.447L327.221 524.295L327.781 524.896L330.026 526.375L330.264 526.767L329.802 527.733L329.838 528.202L330.032 528.588L330.283 528.748L330.958 528.992L331.782 529.556L332.207 530.205L331.688 530.702L332.027 531.023L331.688 531.34L331.132 530.688L330.819 531.117L330.517 531.908L329.98 532.331L329.294 532.1L328.828 531.547L328.22 530.383L326.229 528.15L324.834 527.269L323.525 527.47L323.749 527.745L323.999 528.254L324.153 528.462L323.679 528.256L323.526 528.142H323.213L323.441 528.774L324.164 529.549L324.463 530.064L325.351 529.905L325.82 530.638L325.999 531.762L326.033 532.786L326.167 533.183L326.492 533.672L326.862 534.084L327.448 534.473L327.456 534.887L327.187 535.145L326.657 534.897H326.37L326.195 535.207L325.748 536.468L324.715 536.012L324.465 535.828L324.717 536.237L325.136 536.584L326.035 537.137L325.744 537.85L325.934 538.4L326.33 538.877L326.657 539.376L325.453 539.042L324.982 539.145L324.803 539.697L325.105 539.408L325.091 539.377L325.722 539.708L325.964 540.072L326.035 540.691L326.12 541.012L326.102 541.168L326.172 541.359L326.516 541.781L326.75 542.33L326.56 542.745L326.035 543.252L325.978 543.653L326.158 545.602L326.463 546.422L327.777 548.917L328.195 549.415L329.5 550.32V550.614L329.347 551.441V551.6L328.564 552.239L328.542 553.015L328.769 553.712L329.224 554.23L329.838 554.478V554.825L329.089 555.127L328.335 555.085L327.701 554.745L327.309 554.161L327.151 554.258L326.816 554.378L326.656 554.479L326.28 553.065L326.559 549.655L326.033 548.053H326.369L325.328 545.285L324.888 543.277L324.455 542.728L323.841 543.545L324.423 544.644L324.635 544.825L324.702 544.996L324.463 546.308L324.714 546.785L325.787 547.78L326.033 548.531L325.896 549.888L325.463 551.222L324.687 552.461L323.527 553.518L322.644 553.661L322.122 555.182L322.387 556.753L323.842 557.034L324.066 556.605L324.737 555.677L325.427 554.908L325.748 554.971L325.566 555.639L325.252 556.233L325.196 556.87L325.748 557.673L325.699 558.689L325.424 558.743L324.742 558.797L324.159 558.772L322.495 558.511L321.585 558.255L320.875 557.816L320.297 557.253L319.742 556.241L319.387 554.726L319.117 554.102L318.667 553.57L317.886 553.119L314.999 552.247L311.999 551.766L311.359 551.458L310.763 550.94L310.291 549.921L310.014 549.13L309.148 547.249L308.111 544.033L307.641 542.967L306.837 541.973L306.17 541.383L303.49 540.304L302.935 536.099L302.351 534.807L301.761 534.588L301.156 531.486L300.986 529.457L301.086 527.762L301.291 526.801L301.538 526.34L301.832 526.104L302.187 526.075L303.205 526.28L303.504 526.278L303.85 526.189L304.677 525.753L305.174 525.561L305.659 525.485L306.12 525.508L306.581 525.662L308.23 526.584L308.794 526.733L309.39 526.497L309.689 526.061L310.158 524.496L310.628 523.413L310.812 522.736L310.827 522.217L310.637 521.83L310.557 521.137L310.613 520.203L311.283 518.228L311.694 517.37L312.085 516.827L312.476 516.622L312.831 516.507L313.265 516.467L314.204 516.473L314.63 516.376L315 516.166L318.067 513.481L319.743 513.414L320.418 513.088L321.103 512.534L322.424 510.888L323.457 509.951L324.387 509.414L325.324 509.057L326.226 508.888L327.166 508.845L329.058 508.951L331.119 508.75L332.059 508.761L332.904 508.954L333.415 509.208L333.976 509.657ZM334.379 520.561L334.733 521.459L334.912 522.021L334.692 522.625L333.946 522.384L332.271 521.203L332.002 520.821L331.723 520.496L331.163 520.349L330.648 519.977L331.028 519.334L332.215 519.191L333.255 519.346L333.908 519.535L334.24 520.015L334.379 520.561Z"
              />
              </svg>

  
    