<?xml version="1.0" encoding="UTF-8" standalone="no"?>
  <svg
     width="768"
              height="868"
              viewBox="-216 -95 768 868"
              xmlns="http://www.w3.org/2000/svg">
              <path
              style="fill:#83a99c"
              d="M119.325 617.75L120.416 617.885L127.897 624.356L144.109 632.873L145.551 634.04L147.898 635.56L149.116 636.629L152.419 640.134L154.534 642.378L155.458 643.104L156.826 644.389L157.139 644.917L157.245 645.469L157.266 646.45L157.16 647.663L156.848 648.783L156.143 649.874L150.853 654.849L149.893 656.029L149.617 656.885L149.843 657.379L150.319 657.772L151.065 658.785L151.022 661.378L147.908 660.635L147.091 660.517L146.613 660.751L146.451 661.349L147.133 663.787L147.261 664.693L146.821 665.496L145.969 666.75L145.804 667.296L145.998 667.889L146.614 668.661L146.742 668.896L146.695 669.141L146.56 669.433L145.876 669.791L144.071 669.275L137.073 665.757L134.919 664.373L134.144 664.103L132.856 664.233L132.124 664.07L131.648 664.027L131.258 664.204L131.028 664.449L130.659 664.571L130.125 664.626L129.081 664.467L127.825 665.112L127.452 665.13L127.231 665.052L125.482 663.837L125.458 663.822L125.448 663.816L125.516 662.804L126.475 654.353L127.197 651.795L128.136 649.094L130.274 649.165L131.673 648.974L131.991 648.156L132.744 647.371L135.563 645.264L136.562 644.799L137.021 645.148L137.144 645.895L138.241 648.815L138.233 648.166L137.957 646.419V644.366L137.651 643.37L137.065 642.318L135.002 639.602L133.198 637.879L132.299 637.35L131.393 637.239L129.58 637.686L128.513 637.636L127.04 636.761L125.963 635.314L125.049 633.747L124.105 632.526L122.598 631.616L121.066 631.395L119.637 631.817L118.444 632.87L118.287 633.317L118.295 633.725L118.184 634.026L117.676 634.144L117.393 634.345L117.199 635.239L117.05 635.442L115.45 635.352L115.316 635.442L115.069 635.021L115.163 634.72L115.338 634.375L115.316 633.826L115.118 633.521L114.51 632.815L114.376 632.378V631.107L114.208 630.02L113.772 629.37L112.497 628.39L112.307 628.689L112.25 628.818L112.216 629.026H111.846L111.78 627.752L111.321 626.854L110.306 625.525L110.09 624.909L110.224 624.799L110.551 624.811L110.932 624.542L111.282 624.013L111.51 623.558L111.532 623.116L111.275 622.635H110.932L110.566 623.353L110.089 623.92L109.485 624.318L108.739 624.542L108.007 624.479L107.985 623.973L108.108 623.205L107.904 622.623L108.739 622.804L109.388 622.698L109.871 622.247L111.782 619.44L112.164 618.704L112.609 618.027L113.196 617.573L113.916 617.412L115.886 617.327L119.325 617.75ZM90.9776 624.891L91.1349 625.685V630.615L89.3563 635.134L88.7521 637.696L89.5686 638.939L89.2331 639.923L89.2449 640.485L89.4205 640.987L89.5699 641.794L88.8163 641.385L88.6367 641.161L87.7048 640.746L87.0927 638.695L86.4702 634.775L85.2499 631.281L84.3403 629.778L83.0243 628.708L81.2746 627.82L80.6848 627.225L80.3191 625.377L80.1631 624.876L80.4056 624.74L83.2891 625.16L84.1843 625.107L84.5684 624.717L84.6693 624.496L85.1608 623.774L85.3508 623.617L85.7571 623.431L85.9105 622.984L85.9813 622.453L86.1307 622L86.4584 621.572L86.9053 621.204L87.4348 621.162L88.001 621.709L87.6655 621.39L90.9776 624.891Z"
              />
              </svg>

  
    