<?xml version="1.0" encoding="UTF-8" standalone="no"?>
  <svg
     width="768"
              height="868"
              viewBox="-216 -95 768 868"
              xmlns="http://www.w3.org/2000/svg">
              <path
              style="fill:#83a99c"
              d="M248.545 421.393L248.63 420.724L248.282 420.272L247.812 419.891L247.521 419.433L248.035 418.832L247.809 418.142L247.348 417.404L247.192 416.67L247.557 416.035L249.47 414.176L250.146 413.259L250.275 412.761L249.885 412.356L247.128 410.219L246.409 409.843L245.866 409.435L245.499 408.911L245.314 408.283L245.382 407.579L245.074 406.826L245.115 406.182L245.552 405.768L246.409 405.691L247.719 405.298L248.481 405.069L249.224 404.996L250.48 405.215L251.186 405.147L251.693 404.628L251.737 404.119L251.315 403.263L251.3 402.797L251.506 402.439L252.157 401.941L252.442 401.664L252.918 400.956L253.171 400.053L253.274 398.5L253.442 398.06L253.876 397.654L254.146 397.777L254.369 398.005L254.667 397.914L254.797 397.623L255.143 395.369L255.131 394.638L254.833 393.978L254.167 393.246L252.123 391.689L251.578 391.083L251.27 390.234L251.17 388.409L251.109 388.247L252.309 387.911L253.674 388.173L254.472 388.443L256.283 389.759L256.852 390.464L257.225 391.168L257.401 391.826L257.53 392.476L257.762 392.915L258.126 393.141L259.556 393.163L260.288 393.331L261.233 393.998L261.9 394.639L263.082 396.031L263.672 396.577L264.207 396.85L265.035 396.879L266.508 396.549L267.275 396.467L268.165 396.648L269.254 397.131L270.803 398.159L273.384 400.436L273.739 400.977L273.924 401.634L273.91 402.41L273.675 404.073L273.704 404.915L273.959 405.556L274.957 406.638L275.341 407.261L275.923 408.595L276.378 409.139L276.868 409.454L277.514 409.395L278.227 409.011L279.228 407.996L279.622 407.239L279.712 406.526L279.527 405.37L279.495 404.718L279.821 404.355L280.432 404.273L282.677 404.942L284.112 405.105L285.879 406.801L286.61 407.321L288.509 409.084L290.179 412.415L290.785 413.197L291.822 414.156L292.66 414.717L293.508 415.056L295.024 415.421L295.663 415.66L296.194 416.349L296.743 417.626L297.832 421.81L298.848 424.424L293.153 425.909L292.66 425.895L292.276 425.757L291.261 425.257L290.685 425.113L290.051 425.086L289.604 425.186L289.284 425.394L289.22 425.822L289.319 426.19L289.839 426.961L289.994 427.363L290.051 427.966L289.89 428.946L289.355 430.319L288.055 432.325L285.935 434.362L282.463 436.814L277.542 439.124L260.769 444.521L257.69 445.953L255.897 447.215L254.86 448.198L254.155 449.396L253.559 450.723L252.578 452.362L250.893 454.194L249.079 455.836L246.099 457.906L245.133 458.424L245.095 458.188L244.449 456.801L244.406 456.369L244.462 455.918L244.434 455.456L244.146 455.004L243.439 454.728L241.722 454.899L240.943 454.61L240.42 453.75L240.437 452.79L240.591 451.81L240.494 450.882L239.985 450.068L239.551 449.617L239.357 449.062L239.577 447.926L241.128 443.448L241.357 441.783L241.364 441.339L241.234 440.863L240.832 439.951L240.729 439.528L240.815 438.562L241.146 437.695L242.082 436.032L242.212 435.601L242.283 435.172L242.424 434.78L242.789 434.441L243.381 434.253L243.648 434.458L243.819 434.774L244.115 434.92L245.001 434.698L245.579 434.215L245.991 433.497L246.54 432.257L246.71 431.612L246.753 431.275L246.953 430.633L247.611 429.675L247.848 429.142L247.903 428.392L247.726 426.984L247.793 426.25L248.858 423.848L249.096 422.658L248.545 421.393Z"
              />
              </svg>

  
    