<?xml version="1.0" encoding="UTF-8" standalone="no"?>
  <svg
     width="768"
              height="868"
              viewBox="-216 -95 768 868"
              xmlns="http://www.w3.org/2000/svg">
              <path
              style="fill:#83a99c"
              d="M203.298 48.894L203.366 49.1863L203.457 51.0199L203.699 51.7854L204.319 52.4355L205.332 52.8012L207.158 52.8903L207.912 53.5509L208.182 54.1826L209.248 57.8159L209.139 58.3048L208.74 58.6914L208.182 59.4202L208.306 60.1515L208.594 60.6994L208.935 61.1896L209.173 61.7624L209.18 62.1202L209.038 62.9223L209.053 63.326L209.173 63.5921L209.573 64.0823L209.67 64.2868L209.708 65.5922L209.474 66.7495L208.572 69.0813L208.569 69.4994L208.636 69.9673L208.797 70.3959L209.065 70.6974L209.782 70.7275L210.475 70.1993L211.969 68.5137L212.263 68.4469L212.894 68.6671L213.159 68.8611L213.517 69.3775L213.74 69.5977L214.68 70.0931L215.484 70.2124L217.384 70.1639L218.494 70.4378L219.048 70.9687L219.439 71.6607L220.055 72.4288L221.042 72.9622L221.837 72.8115L222.571 72.3672L223.372 72.0303L224.32 72.0539L225.121 72.4445L225.617 73.1615L225.661 74.1825L225.235 75.0069L224.579 75.7343L224.103 76.526L224.194 77.5418L224.826 78.2181L225.78 78.5366L227.711 78.9442L229.04 79.7752L232.592 82.9287L234.415 83.4124L235.868 82.9235L237.187 82.7675L238.587 84.2276L239.799 87.8098L239.979 87.9841L235.763 90.7706L235.373 91.3447L234.982 92.1573L235.984 94.181L236.107 94.9242L236.098 95.6713L235.795 96.6294L235.31 97.3713L234.535 98.1223L233.446 98.7855L230.531 99.9232L229.31 100.223L227.687 100.396L225.797 99.627L225.541 99.218L225.326 98.6269L225.32 97.1511L225.007 96.3961L224.545 96.2047L223.928 96.3188L223.094 96.5744L222.143 96.6333L221.119 96.2349L220.541 95.4576L220.072 94.417L218.857 92.6934L218.173 91.5098L217.751 90.4102L217.597 89.5818L217.334 88.9356L216.808 88.7403L216.048 88.9605L215.293 89.3708L214.661 89.8492L213.624 90.823L213.134 91.1009L212.429 91.0183L211.804 90.4875L210.128 88.6722L209.057 88.2383L207.787 88.1282L206.604 88.2986L205.465 88.6447L204.499 89.2594L203.625 90.1585L202.794 91.3145L201.329 95.0225L200.772 96.0737L199.947 96.9361L198.84 97.5862L197.14 97.9073L195.983 97.7317L195.043 97.2782L192.248 94.6385L190.807 93.9726L189.369 93.603L187.884 93.4221L187.029 93.122L186.454 92.6842L186.19 92.0053L186.126 91.2765L186.546 90.0405L188.409 87.0587L189.446 85.7729L190.556 84.7912L190.632 84.4137L190.479 83.9104L187.18 79.4554L186.574 78.9482L186.034 78.6847L185.656 78.6375L185.374 78.4711L185.21 78.1421L185.215 77.0765L185.125 76.4696L184.59 75.197L184.264 73.8915L184.093 71.4222L184.334 67.1139L184.528 66.1741L184.954 65.4559L185.424 65.064L186.348 64.5594L186.809 64.233L187.223 63.8162L187.597 63.3326L189.889 59.0584L190.685 56.4934L190.784 55.8918L190.699 55.3911L190.429 54.8852L189.282 53.6151L188.962 52.9833L188.522 50.5219L187.712 48.7275L189.212 47.329L189.889 47.0158L190.693 46.7693L191.339 46.8074L191.985 47.0315L195.804 49.6267L197.133 50.1457L198.407 50.2728L199.643 50.2414L200.676 50.0985L201.626 49.8508L203.138 49.0342L203.294 48.8927L203.298 48.894Z"
              />
              </svg>

  
    