<?xml version="1.0" encoding="UTF-8" standalone="no"?>
  <svg
     width="768"
              height="868"
              viewBox="-216 -95 768 868"
              xmlns="http://www.w3.org/2000/svg">
              <path
              style="fill:#83a99c"
              d="M66.5922 36.7282L66.3472 34.6245L66.4651 34.1448L67.4363 32.9376L67.8243 32.1499L68.0878 31.4068L68.4312 30.7999L69.0629 30.4015L71.0381 29.2572L71.569 29.5469L74.6806 33.3689L77.7882 36.1921L78.2968 36.7898L78.496 37.221L79.4121 38.689L79.7175 39.0075L80.078 39.1792L81.1147 40.364L81.3821 40.4545L82.1161 40.5462L82.3887 40.672L82.7623 41.2003L83.4163 42.4572L83.8004 42.7062L84.5015 42.8832L84.9708 43.2908L85.364 43.7548L86.0272 43.3498L86.5475 42.76L86.6393 42.1138L86.5567 41.4008V40.6209L86.7625 39.8725L87.3733 38.4032L87.5607 37.6443L87.857 34.6258L88.3091 33.2273L89.2686 31.9363L89.6945 31.5103L90.2411 30.5037L90.5779 30.0738L91.1979 29.6321L91.7562 29.48L93.0918 29.3699L96.9898 27.9688L98.2691 28.0003L97.8995 28.9741L97.7002 30.0358L97.7435 31.104L98.0699 32.0909L98.6505 32.7738L101.168 33.9495L102.122 34.5524L102.807 34.8578L103.508 34.7451L103.803 34.5511L103.79 34.8368L103.925 35.4568L104.174 35.7478L104.678 36.0636L106.087 36.3363L106.571 36.6023L106.912 36.9706L107.196 37.4019L108.873 39.4754L109.157 39.9957L109.187 40.309L109.01 40.4925L108.698 40.5384L107.836 40.5501L107.475 40.811L107.39 41.4558L107.637 42.8203L108.22 44.1126L108.47 45.0393L108.576 45.7588L108.562 47.2163L108.797 48.1391L109.33 48.8088L110.903 49.7748L112.44 50.5088L113.13 50.9544L113.79 51.5508L114.472 52.4539L114.775 53.294L114.784 54.1158L114.414 55.6559L114.343 56.3256L114.436 56.9875L114.65 57.2969L114.927 57.3559L115.249 57.1343L116.021 56.1054L116.173 57.6154L116.813 59.1135L116.927 59.8147L116.798 60.339L116.4 60.6313L115.789 60.8239L115.122 61.2538L114.452 61.976L113.713 63.2369L113.131 63.9198L112.632 64.1374L112.056 63.9434L108.956 61.7755L107.983 61.5107L106.958 61.5461L105.501 62.1989L104.855 63.0613L104.682 63.9368L105.031 64.9461L106.973 68.3788L107.414 69.4064L107.566 70.3107L107.528 71.1548L107.208 72.1208L106.711 72.9138L106.043 73.5442L105.288 73.8745L104.4 73.826L103.3 73.4892L99.5011 71.7328L98.3425 71.0408L97.8667 70.8324L97.4696 70.9412L97.3464 71.3173L97.4132 71.8875L97.3752 72.59L97.1576 73.3463L96.6583 74.1891L96.2532 74.4407L95.8417 74.3503L95.3803 73.9479L94.8049 73.5508L94.0997 73.2401L93.2806 73.0671L91.3552 72.9203L90.4036 72.7394L89.6015 72.4039L88.7679 71.8521L87.4755 70.5676L86.9644 70.2085L86.4912 70.1364L86.1884 70.4287L85.3718 72.4786L84.4269 74.0069L83.643 74.8719L83.3023 75.353L83.1738 75.7226L83.259 76.0752L84.7716 78.4803L85.0507 79.1186L85.1071 79.7425L84.9603 80.4175L84.3679 81.7622L83.8043 82.7007L82.4608 83.0821L81.6338 83.225L80.6534 82.8947L79.6586 82.0493L73.9846 75.7213L73.1011 74.0803L71.0958 68.6671L70.4994 67.6697L69.7392 67.0615L69.1494 66.7889L67.4966 67.2031L68.2516 63.0128L68.557 62.2054L68.9502 61.4006L69.9096 59.9536L70.4706 59.3599L71.1521 58.892L73.4563 58.2104L74.1025 57.7582L74.6806 57.1907L76.7645 54.6165L77.7738 52.6819L78.0792 51.771L78.1434 50.8902L77.7948 49.9806L77.1106 49.0946L75.6465 48.0827L74.5875 47.8061L73.6267 47.8402L72.86 48.067L72.0998 48.2151L71.316 48.1876L70.4352 47.9084L69.4981 47.4011L68.3446 46.4902L67.8401 45.7221L67.8899 44.9764L68.3512 44.4049L68.8978 43.8518L69.367 43.2554L69.5112 42.4323L69.3381 41.3339L68.9974 40.2002L67.591 37.5749L66.5922 36.7282Z"
              />
              </svg>

  
    