<?xml version="1.0" encoding="UTF-8" standalone="no"?>
  <svg
     width="768"
              height="868"
              viewBox="-216 -95 768 868"
              xmlns="http://www.w3.org/2000/svg">
              <path
              style="fill:#83a99c"
              d="M201.919 152.373L202.008 152.524L202.377 152.671L202.725 152.475L202.919 151.994L204.008 152.815L204.202 153.056L204.351 153.486L204.823 154.3L205.098 155.004L204.974 155.721L204.27 156.078L203.663 156.009L203.126 156.189L202.009 156.451L200.553 156.542L199.96 156.697L196.973 157.059V156.697H197.287V156.393L196.959 156.427L196.75 156.487L196.318 156.698V157.06L196.65 157.406L196.336 157.671L195.378 158.063L195.061 158.417L194.469 159.727L192.872 161.747L191.872 162.429L190.753 164.057L189.694 164.704L188.582 166.012L187.899 166.422L188.328 165.339L188.526 165.088L188.186 164.726L187.851 165.413L187.307 166.868L186.937 167.417L186.244 167.82L184.554 168.261L183.779 168.749L183.518 168.019L183.659 167.242L183.95 166.388L184.118 165.42L185.857 160.861L186.309 158.566L186.283 157.776L186.177 157.06L185.978 156.423L185.714 156.04L185.395 155.836L185.025 155.765L184.305 155.694L184.029 155.579L183.794 155.376L183.553 155.039L183.354 154.832L183.177 154.722L182.936 154.721L182.645 154.801L182.304 154.967L181.925 155.212L181.499 155.346L181.088 155.274L180.207 154.384L179.785 154.156L178.485 154.018L177.824 153.795L177.213 153.247L176.773 151.905L176.635 150.601L176.692 147.957L177.447 146.581L177.908 146.225L178.278 146.145L178.533 146.322L178.832 147.083L179.095 147.272L179.515 147.243L180.078 146.885L180.405 146.208L180.704 145.236L181.443 143.897L182.12 143.436L182.924 143.329L183.591 143.441L185.261 143.156L185.953 143.221L187.327 143.065L187.564 143.277L187.839 143.387L188.127 143.468L188.421 143.59L188.715 143.846L188.855 144.155L188.872 144.512L188.692 145.619L188.687 146.316L188.94 146.842L189.595 147.036L190.865 146.974L191.35 147.209L191.685 147.872L191.706 148.56L191.471 149.099L191.168 149.617L190.981 150.242L191.137 150.854L191.627 150.95L192.234 150.723L192.731 150.369L193.676 149.425L194.201 149.186L194.885 149.242L195.136 149.677L196.583 150.415L196.967 150.782L197.651 151.595L199.503 153.017L199.738 153.15L200.048 153.211L200.638 153.216L200.922 153.169L201.199 153.056L201.449 152.866L201.845 152.412L201.919 152.373Z"
              />
              </svg>

  
    