<?xml version="1.0" encoding="UTF-8" standalone="no"?>
  <svg
     width="768"
              height="868"
              viewBox="-216 -95 768 868"
              xmlns="http://www.w3.org/2000/svg">
              <path
              style="fill:#83a99c"
              d="M96.3922 181.729L97.7107 181.367L98.315 181.894L99.914 182.443L100.75 183.855L102.887 182.485L103.718 182.269L104.636 182.375L105.171 182.787L105.606 183.389L106.255 184.053L106.639 184.298L107.799 184.814L110.4 186.388L111.177 186.556L112.248 186.432L112.646 186.261L113.351 185.783L113.763 185.649L114.156 185.75L114.942 186.211L115.368 186.165L115.771 185.648L117.224 181.76L117.603 181.115L118.196 180.46L118.915 179.936L119.488 179.778L120.11 179.705L120.979 179.438L122.078 178.422L123.2 177.915L124.107 177.236L124.568 175.701L124.651 174.892L124.639 174.449L124.301 174.177L123.432 173.884L122.077 173.798L121.839 173.528L122.126 172.626L122.99 171.525L125.496 170.024L126.532 169.229L126.955 168.55L127.04 168.13L127.26 167.89L128.135 167.752L129.488 167.91L130.095 167.817L130.553 167.416L131.343 167.609L133.704 168.521L135.928 169.896L137.281 170.42L139.996 171.193L140.792 171.698L141.27 172.36V172.984L140.948 173.601L139.811 174.786L139.456 175.451L139.279 176.253L139.376 177.436L139.763 178.845L140.746 180.979L141.755 182.269L144.379 184.64L145.061 185.555L145.445 186.585L145.537 187.594L145.445 189.601L145.495 190.446L145.736 190.699L146.136 190.581L147.136 189.543L147.59 189.159L148.116 188.977L148.736 189.049L149.391 189.432L150.024 190.168L151.416 192.17L152.112 192.695L153.038 192.892L155.207 192.665L156.266 192.836L157.531 193.619L158.294 194.513L159.468 196.39L159.915 196.841L160.426 197.145L161.087 197.435L162.012 198.089L164.522 200.649L165.118 200.988L168.033 201.406L169.988 202.355L169.951 202.453L169.589 202.695L169.179 202.718L168.832 202.813L168.433 204.215L167.847 204.246L167.217 204.153L167.109 204.412L166.55 207.405L166.487 209.169L166.818 210.4L165.658 210.974L165.211 211.272L164.917 211.725L163.667 211.316L162.545 212.488L161.676 214.277L161.192 215.726L161.147 216.359L161.393 216.806L161.505 217.216L161.557 217.861L161.897 219.422L162.131 220.027L162.75 220.856L163.742 221.717L164.868 222.402L165.883 222.704V223.005L165.252 223.693L165.062 223.263L164.793 222.946L164.428 222.757L163.977 222.704L164.47 223.831L164.603 224.055L164.905 224.149L165.699 224.071L166.038 224.204L166.997 225.269L167.5 226.008L167.757 226.699L167.074 228.695L167.276 229.009L167.69 229.41L167.761 230.329L167.627 231.331L167.445 231.982L166.345 232.38L165.791 232.707L165.552 233.134L165.42 233.542L165.131 233.69L164.814 233.768L164.615 233.96V234.271L164.695 234.681L164.813 234.98L164.927 234.952L164.245 236.116L163.37 236.459L162.342 236.138L162.028 235.913L161.447 235.862L161.209 235.853L156.114 235.16L154.12 235.293L153.067 235.55L151.937 235.621L150.705 235.389L145.613 233.77L142.002 234.083L140.808 234.132V233.539L140.505 233.132L139.507 232.45L138.205 230.26L137.636 230.08L137.102 230.152L136.568 230.3L135.999 230.342L134.889 229.937L132.59 228.582L131.841 228.434L131.064 228.646L130.163 228.671L129.36 228.458L128.879 227.969L128.427 226.762L127.214 226.405L124.579 226.613L123.948 226.543L122.172 225.995L120.297 225.726L119.762 225.528L119.407 225.219L118.872 224.404L118.631 224.14L118.176 223.974L117.29 223.902L116.826 223.764L116.139 223.288L114.891 222.013L114.235 221.508L112.696 220.667L112.156 220.166L110.579 217.765L110.021 217.201L109.254 216.731L108.392 216.503L106.968 216.652L106.152 216.47L105.579 216.026L104.262 214.024L103.49 213.331L102.756 212.977L101.969 212.721L101.094 212.324L100.378 211.75L99.7856 211.121L99.125 210.607L99.1106 210.603L98.1918 210.373L96.8654 210.767L96.463 210.358L96.4577 209.491L96.2926 208.526L95.8221 208.058L93.9845 206.781L88.8976 204.482L87.9553 204.258L86.9932 204.308L86.022 204.724H85.9656L84.6091 203.738L83.4557 203.128L83.1332 202.893L82.9013 202.552L82.2944 201.394L81.5656 201.301L80.7321 201.324L80.2681 201.102L80.6495 200.263L81.2576 199.793L82.9013 199.069L83.6064 198.536L84.5108 197.148L85.0508 196.681L86.022 196.453L87.0614 195.905L88.1479 195.513L88.823 195.432L88.9671 195.614L88.9907 195.592L89.3459 194.906L89.4993 194.422L89.6893 193.298L89.9855 192.777L90.4443 192.497L90.9371 192.387L91.3342 192.175L91.5256 191.601L91.519 191.596L90.9934 190.929L90.844 190.13L90.785 189.295L90.4915 188.505L89.9711 188.066L88.5385 187.197L88.0077 186.498L87.1059 183.962L86.9919 183.359L87.2567 182.589L87.6826 182.402L88.2082 182.555L90.4063 183.693L91.2779 183.991L92.2177 183.847L92.582 183.549L92.9162 182.823L93.2269 182.505L93.4589 182.261L94.4602 182.248L96.3922 181.729Z"
              />
              </svg>

  
    