<?xml version="1.0" encoding="UTF-8" standalone="no"?>
  <svg
     width="768"
              height="868"
              viewBox="-216 -95 768 868"
              xmlns="http://www.w3.org/2000/svg">
              <path
              style="fill:#83a99c"
              d="M325.694 558.688L325.683 558.88L327.484 561.17L326.992 562.176L326.652 561.827L326.331 562.18L325.929 563.135L325.116 564.152L325.005 564.56L324.982 565.024L324.799 565.717L324.534 566.037L323.702 566.749L323.522 567.127L323.411 567.658L323.146 568.168L322.582 568.91H322.269L321.721 568.439L321.05 568.403L320.278 568.462L319.424 568.273L318.902 567.674L318.555 566.05L318.342 565.714L317.279 565.981L317.346 566.565L317.872 567.158L318.199 567.445L318.106 568.089L317.939 568.725L317.909 569.407L318.199 570.187L317.233 570.213L316.92 570.187L317.625 571.374L317.648 573.395L317.233 576.572L317.379 578.381L317.177 578.929L316.607 579.502L315.465 580.434L314.794 580.852L314.134 581.068L313.295 581.018L312.039 580.448L312.038 580.441L311.934 579.768L311.712 579.107L311.139 578.204L310.296 577.428L309.04 576.884L308.131 576.731L306.693 576.84L306.203 576.774L305.895 576.503L305.71 575.948L305.596 574.625L305.482 574.126L305.176 573.813L304.018 573.51L303.584 573.284L303.293 572.832L303.165 572.315L302.999 571.032L302.824 570.474L302.459 569.956L301.805 569.559L301.081 569.252L298.94 569.196L298.336 566.84V566.309L298.477 565.634L298.897 565.181L300.526 563.771L301.492 562.472L301.833 561.563L301.897 560.854L301.712 560.386L301.442 559.972L300.644 559.169L300.198 558.579L299.834 557.732L299.728 556.315L301.741 550.041L302.267 545.809L302.153 544.789L301.938 543.966L301.834 543.028L301.99 542.206L302.36 541.506L302.771 540.99L303.476 540.296L306.157 541.375L306.824 541.965L307.627 542.96L308.098 544.025L309.135 547.242L310.001 549.122L310.278 549.913L310.749 550.932L311.346 551.45L311.985 551.758L314.986 552.239L317.873 553.111L318.654 553.562L319.104 554.094L319.374 554.718L319.729 556.233L320.283 557.245L320.862 557.808L321.572 558.247L322.481 558.503L324.146 558.764L324.729 558.789L325.411 558.735L325.694 558.688Z"
              />
              </svg>

  
    