<?xml version="1.0" encoding="UTF-8" standalone="no"?>
  <svg
     width="768"
              height="868"
              viewBox="-216 -95 768 868"
              xmlns="http://www.w3.org/2000/svg">
              <path
              style="fill:#83a99c"
              d="M147.592 92.8363L148.795 96.7487L149.18 97.1498L149.732 97.619L150.239 97.6754L151.017 98.0253L151.414 98.5522L152.253 100.343L153.74 102.2L154.01 102.801L154.025 103.359L153.74 103.802L153.494 104.072L153.034 104.348L152.723 104.536L152.58 103.766L152.049 103.022L151.159 102.805L150.174 102.933L149.26 103.307L149.023 103.762L148.762 104.372L148.634 104.681L148.771 106.415L148.014 107.262L146.934 107.824L146.1 108.707L145.972 109.73L146.336 110.504L146.824 111.177L147.065 111.895L146.897 112.991L146.189 114.406L146.099 115.447L146.378 116.241L147.155 117.531L147.516 118.125L147.85 118.494L148.162 119.029L148.297 120.256L148.29 122.1L147.521 122.312L146.611 122.261L142.708 121.147L141.941 121.121L140.347 121.222L139.374 121.037L138.326 120.573L134.971 117.695L130.398 115.485L129.744 114.946L129.382 114.554L128.857 113.139L128.238 112.381L127.461 111.756L127.252 111.36L127.162 110.802L127.347 108.082L126.892 105.828L125.184 101.923L128.237 100.162L128.819 99.4907L129.344 98.5627L129.277 97.4539L128.255 94.2662L127.914 92.4051L127.999 90.2333L128.598 88.8072L129.465 87.5948L130.595 86.6249L131.734 86.0338L132.963 85.6118L135.464 85.0377L136.35 84.7297L138.164 83.4832L141.1 85.3116L143.729 87.6853L145.813 90.114L147.592 92.8363Z"
              />
              </svg>

  
    