<?xml version="1.0" encoding="UTF-8" standalone="no"?>
  <svg
     width="768"
              height="868"
              viewBox="-216 -95 768 868"
              xmlns="http://www.w3.org/2000/svg">
              <path
              style="fill:#83a99c"
              d="M213.31 339.391L212.893 339.713L212.438 339.903L212.128 339.923L211.984 339.708L211.989 339.189L210.624 339.409L209.606 338.619L208.896 337.356L208.253 335.468L208.185 334.921L208.399 332.361L208.209 331.82L207.51 331.491L206.897 331.439L205.973 331.062L205.104 330.532L204.064 329.373L203.648 328.352L203.392 327.185L203.323 314.398L204.439 313.983L205.827 313.367L213.2 313.886L214.893 313.65L216.31 313.051L216.9 312.258L217.496 311.271L218.136 309.87L219.339 308.201L220.234 307.218L224.758 304.466L225.043 304.258L229.825 307.803L230.53 309.17L230.257 311.145L230.776 311.562L233.25 315.177L233.898 315.566L234.044 315.902L233.898 316.139L233.573 316.292L233.25 316.509L233.104 316.912L232.831 317.113L231.198 318.041V318.368L232.366 318.374L232.904 318.282L233.419 318.041L233.475 317.819L233.408 317.486L233.386 317.191L234.214 316.586L234.624 316.444L234.942 316.76L235.214 317.197L235.453 317.417L236.128 317.781L242.057 322.888L243.567 324.006L243.363 324.444L240.213 328.95L238.87 330.249L237.895 330.882L237.02 331.178L232.682 331.781L230.641 332.42L229.957 332.89L229.669 333.414L229.775 334.305L230.159 335.196L230.687 335.962L231.198 336.476L232.079 337.09L232.349 337.337L232.356 337.68L232.121 338.164L230.463 340.143L228.435 341.956L227.86 342.791L227.573 343.418L227.802 345.632L227.817 345.94V345.955L227.148 345.744L225.358 345.544L223.794 345.597L223.202 345.523L222.709 345.18L222.595 344.856L222.439 343.783L222.225 343.314L221.926 343.047L220.805 342.426L220.014 341.767L219.588 341.177L219.031 339.881L218.873 339.912L218.584 340.071L218.279 340.177L218.097 340.041V339.769L218.203 339.565L218.347 339.409L218.403 339.281L218.597 337.691L218.469 335.769L217.673 334.527L216.582 334.482L215.598 336.149L215.411 336.945L214.897 337.439L213.661 338.235L213.453 338.626L213.444 338.995L213.358 339.355L213.31 339.391Z"
              />
              </svg>

  
    