<?xml version="1.0" encoding="UTF-8" standalone="no"?>
  <svg
     width="768"
              height="868"
              viewBox="-216 -95 768 868"
              xmlns="http://www.w3.org/2000/svg">
              <path
              style="fill:#83a99c"
              d="M197.386 311.333L196.612 309.773L196.647 309.558L196.943 309.052L196.97 308.774L196.498 307.942L194.293 305.871L192.91 303.571L192.657 302.85L192.695 302.349L193.068 301.585L193.103 301.143L192.939 300.863L192.305 300.193L192.068 299.863L191.964 299.277L192.009 298.768L191.912 298.374L191.365 298.131L190.784 298.161L190.547 298.451L190.436 298.865L190.233 299.265L189.567 299.949L189.036 300.289L188.37 300.222L187.369 299.688L179.755 293.107L175.769 288.245H175.763L174.799 287.232L171.816 283.33L170.618 282.197L169.13 281.21L166.741 280.154L166.183 279.699L165.759 278.931L165.181 277.096L164.759 276.303L163.741 274.908L162.557 272.645L160.779 271.003L160.271 269.373L160.817 265.713L160.697 265.469L162.058 265.257L164.31 264.883L165.605 263.977L166.8 262.883L167.681 262.524L170.66 261.647L172.453 260.905L173.903 260.632L175.532 260.572L178.262 261.058L179.322 261.533L180.174 262.121L180.843 262.825L181.326 263.575L181.59 264.242L181.633 264.866L181.548 265.343L181.541 265.753L181.741 266.12L182.389 266.554L185.227 267.41L190.184 268.321L191.634 268.396L192.664 268.174L193.128 267.672L193.583 266.882L194.094 266.17L194.913 265.557L196.562 265.293L200.266 265.642L202.25 266.098L202.637 266.057L202.92 266.414V266.711L201.972 267.326L201.069 268.058L200.607 268.663L200.231 269.275L199.727 269.679L198.854 269.671V270.031L199.358 270.145L199.54 270.455L199.469 270.891L199.168 271.375L199.578 272.26L199.984 273.646L200.413 276.109L200.643 276.648L201.571 277.564L201.695 277.917L201.303 278.304L200.799 278.26L199.435 277.66L198.831 276.532L198.382 276.276L197.689 276.168L196.034 275.289L192.923 274.97L192.252 274.665L191.939 274.961L192.596 275.434L193.663 275.857L194.77 276.159L196.314 276.342L198.541 276.932V277.29H198.228L197.322 276.914L196.427 277.508L196.27 278.488L197.601 279.259L197.34 278.679L197.213 278.47L196.975 278.276L198.004 277.806L199.491 278.014L200.972 278.601L201.987 279.259L202.468 279.877L203.575 281.917L204.806 283.334L207.044 287.148L207.559 288.689L207.954 289.469L208.13 289.541L209.036 290.268L209.08 290.452L209.282 290.58L209.864 291.432L213.88 295.946L222.253 302.192L225.042 304.263L224.756 304.471L220.233 307.224L219.338 308.207L218.135 309.875L217.495 311.276L216.899 312.263L216.309 313.056L214.892 313.655L213.199 313.891L205.826 313.372L204.438 313.988L203.321 314.404L203.316 313.348L202.908 312.554L201.64 313.768L200.581 313.444L199.791 313.305L198.905 312.976L198.128 312.583L197.721 312.246V312.241L197.604 311.784L197.386 311.333Z"
              />
              </svg>

  
    