<?xml version="1.0" encoding="UTF-8" standalone="no"?>
  <svg
     width="768"
              height="868"
              viewBox="-216 -95 768 868"
              xmlns="http://www.w3.org/2000/svg">
              <path
              style="fill:#83a99c"
              d="M305.424 388.556L305.626 388.683L305.947 389.02L306.022 389.577L305.963 390.142L305.977 390.708L306.26 391.263L306.093 391.506L306.03 391.653L305.947 391.939H306.26L306.327 391.67L306.596 390.965L306.917 391.021L307.289 391.038L308.162 390.965V390.64L307.014 390.464L306.663 389.619L306.984 388.626L307.849 388.016V387.691L307.572 387.552L307.445 387.414L307.191 387.012L307.549 387.192L307.858 387.272L308.137 387.215L308.443 387.012L308.681 387.732L308.972 389.611L309.267 389.994L309.625 390.168L310.732 391.054L310.979 391.425L310.896 393.184L311.151 393.799L312.321 394.877L312.881 395.214L313.238 395.331L313.851 395.381L314.134 395.508L313.764 396.142L313.275 396.602L312.671 396.844L311.917 396.807V397.158L312.376 397.115L312.663 397.169L312.812 397.381L312.879 397.806L312.223 397.45L312.014 397.989L311.873 399.38L311.66 400.076L310.922 399.761L310.308 399.807L310.047 400.146L310.382 400.722H310.666L311.038 400.551L311.411 400.675L311.65 401.061L311.662 401.694H311.919L311.941 401.3L312.008 401.006L312.224 400.423L312.646 404.64L313.719 408.353L316.606 415.029L315.684 415.132L315.9 415.415L316.919 415.825L317.117 416.247L318.042 417.642L318.341 417.943L320.053 420.209L320.295 420.88L320.705 423.149L320.321 422.964L320.042 422.673L319.852 422.288L319.893 422.911L319.621 422.667L318.66 422.411L317.864 422.47L315.375 422.888L310.048 422.58L307.832 422.87L306.82 423.199L304.651 424.618L303.151 425.287L301.082 426.535L298.848 424.421L297.833 421.806L296.743 417.622L296.194 416.345L295.663 415.656L295.024 415.417L293.509 415.052L292.661 414.714L291.822 414.153L290.785 413.193L290.179 412.411L288.51 409.08L286.61 407.317L285.879 406.797L284.112 405.101L285.486 403.283L285.46 402.806L285.268 402.119L283.994 400.752L283.369 399.79L283.178 398.93L283.298 398.047L283.703 397.306L284.862 395.931L285.34 395.187L285.937 393.862L286.356 393.36L286.932 392.867L287.542 392.538L288.212 392.387L292.776 391.945L294.998 391.383L301.041 389.184L302.285 388.934L304.22 388.783L305.309 388.586L305.424 388.556Z"
              />
              </svg>

  
    