<?xml version="1.0" encoding="UTF-8" standalone="no"?>
  <svg
     width="768"
              height="868"
              viewBox="-216 -95 768 868"
              xmlns="http://www.w3.org/2000/svg">
              <path
              style="fill:#83a99c"
              d="M239.984 87.9893L240.652 88.6381L242.243 87.6747L243.485 86.368L244.221 86.039L245.134 86.2907L245.642 87.0522L245.824 88.7849L246.409 89.0706L247.207 89.3891L247.671 89.5163L248.062 89.5032L248.447 89.2279L248.826 88.4428L249.125 88.1781L249.946 88.0706L251.865 88.3275H252.798L255.487 87.7337L256.33 87.3851L258.125 86.0429L258.83 85.7677L259.532 85.7349L260.345 85.845L261.892 86.2474L262.842 86.6655L263.186 87.1321L263.397 87.7429L263.901 88.5883L264.462 89.1362L265.765 90.1113L267.362 91.8454L267.967 92.0158L270.122 94.2387L269.148 94.725L268.168 95.7486L267.303 96.3581L266.676 95.5808L266.687 95.0959L266.915 94.7735L267.179 94.5506L267.303 94.3763L267.25 93.9975L267.135 93.7328L267.016 93.5349L266.959 93.3802L266.799 92.6685L266.385 92.2255L265.793 91.9764L265.114 91.8519L265.199 92.2124L265.147 92.4208L264.799 92.8598H264.494L264.237 92.042L263.924 92.4994L263.554 93.8704L263.006 94.105L262.682 93.78L262.549 93.0879L262.583 92.2163H262.304L261.956 92.523V92.8598L262.158 93.0709L262.229 93.2229L262.304 93.8704H261.956L261.677 93.1967L261.364 93.5637L261.188 92.5715L260.602 92.3329L259.841 92.5361L259.17 92.8612V93.198L259.908 93.1914L260.459 93.3802L260.836 93.8049L261.018 94.51L260.391 94.2374L260.492 94.5585L260.623 95.2597L260.735 95.5795L260.242 95.5717L259.872 95.7119L259.608 95.957L259.458 96.2532L259.764 96.5573L258.999 97.9034L258.164 97.8732L257.758 97.9191L257.572 98.0869L257.303 98.5076L256.689 98.5338L256.05 98.294L255.7 97.9034H255.357L255.219 98.1197L255.074 98.2704V98.5771L255.375 99.1721L255.099 99.5352L254.495 99.5955L253.797 99.2809L253.902 99.5509L253.898 99.665L253.924 99.7488L254.133 99.9192V100.288L253.757 100.493L253.623 100.695L253.746 100.947L254.134 101.295L253.833 101.34L253.172 101.628L253.354 101.716L253.417 101.708L253.439 101.745L253.51 101.965L253.298 101.866L252.567 101.63L252.354 102.86L252.156 103.437L251.76 103.677L250.988 103.635L250.463 103.473L250.087 103.154L249.759 102.638L249.561 102.069L249.46 101.538L249.222 101.143L248.633 100.987L248.619 101.196L248.801 101.682L248.932 102.233L248.764 102.638V103.003L249.328 103.28L248.832 103.436L247.818 103.454L246.886 103.31H246.779L246.338 103.193L245.857 102.919L245.633 102.474L245.364 102.368L243.731 101.965L243.444 102.638L243.765 102.956L245.006 103.677V103.984L244.111 104.38L242.646 104.339L241.538 104.685V105.019L241.807 105.394L241.696 105.671L241.419 105.952L241.225 106.364L241.146 108.143L240.938 108.713L241.292 109.001L241.688 109.198L242.098 109.229L242.5 109.05L242.221 111.253L241.908 112.414L241.225 113.103L241.486 113.527L241.538 113.802L241.359 113.972L240.937 114.08L241.116 114.811L241.213 115.543L241.395 116.136L241.85 116.456V116.764L241.09 117.371L240.635 117.629L239.997 117.831L238.952 117.859L238.095 117.89L237.509 118.131L236.909 117.906L235.939 117.966L234.969 118.203L234.377 118.497L234.611 118.597L234.761 118.695L234.955 118.772L235.29 118.802V119.138L234.544 119.332L233.56 120.438L233.728 121.177L233.035 121.222L232.531 121.378L232.073 121.434L231.535 121.179V121.514L230.83 120.827L228.593 120.504L227.728 120.145V119.84L229.063 118.095L231.535 116.456V116.125L230.931 116.167L230.338 116.288L229.793 116.492L229.342 116.763L229.137 117.083L229.07 117.426L228.935 117.712L228.536 117.83L228.354 117.67L228.413 117.316L228.581 116.954L228.692 116.763L228.49 116.634L228.472 116.595L228.379 116.455L228.009 117.278L227.595 117.658L227.338 117.437L227.439 116.456H227.126L227.148 116.987L227.104 117.447L226.996 117.826L226.814 118.131L226.848 117.43L226.743 116.885L226.438 116.538L225.874 116.456V116.764L226.034 116.912L226.287 117.244L226.499 117.462L226.354 117.48L225.873 117.462L226.499 118.133L225.851 118.126L225.414 117.905L224.598 117.127L224.49 117.802L225.654 118.785L225.874 119.475L225.468 120.196L224.744 120.519L223.879 120.576L223.033 120.512L222.269 120.362L221.579 120.11L220.997 119.799L220.528 119.475L219.413 118.45L218.897 118.258L218.625 118.804L218.445 118.53L218.292 118.456L217.997 118.497L219.329 120.054L219.899 120.509L220.865 121.006L221.126 121.176L221.312 121.504L221.409 121.907L221.599 122.278L222.092 122.518V122.851L220.905 122.825L220.194 122.637L219.723 122.138L219.272 121.176H218.937L218.993 121.615L219.127 121.982L219.306 122.281L219.563 122.517L218.646 123.871L218.276 123.543L217.926 122.533L217.057 121.846L217.215 121.593L217.158 121.521L217.057 121.176H216.744L215.808 121.45L214.763 120.935L214.271 120.206L215.02 119.839L215.849 119.785L216.308 119.616L216.479 119.295L216.431 118.804L216.121 118.578L215.644 118.354L215.473 118.023L216.091 117.462L215.792 117.144L215.445 116.901L215.043 116.767L214.55 116.766L214.651 116.936L214.762 117.302L214.863 117.463L213.808 117.367L213.062 116.914L212.361 116.654L211.421 117.13V117.464H211.765V117.834L210.049 117.117L209.057 116.901L208.297 117.13L208.692 117.236L208.373 117.257L206.608 116.872L205.341 116.07L200.792 115.537L199.808 115.298L199.24 114.959L199.063 114.476L199.006 113.879L199.071 113.267L199.326 112.836L199.81 112.466L200.992 112.052L201.546 111.736L202.043 111.304L202.528 110.76L203.309 109.635L203.885 108.605L213.663 110.179L216.648 110.156L219.073 109.402L221.213 109.106L222.308 108.803L223.025 108.38L223.432 107.727L223.809 106.794L224.132 105.754L224.632 102.657L225.037 102.029L225.363 101.649L227.688 100.402L229.311 100.229L230.532 99.9284L233.447 98.7907L234.537 98.1275L235.311 97.3765L235.796 96.6346L236.099 95.6765L236.108 94.9294L235.985 94.1863L234.984 92.1626L235.374 91.3499L235.765 90.7758L239.984 87.9893ZM228.379 127.906L228.603 128.066L228.737 128.203L229.005 128.546L228.464 128.45L228.136 128.123L227.726 127.237L227.562 127.653L227.577 128.013L227.752 128.314L228.066 128.546V128.882L227.462 129.108H227.011L226.612 128.913L226.161 128.546L226.389 129.583L227.788 130.393L228.067 131.254H227.728V130.921H227.441L227.22 131.768L226.814 132.621V131.557L226.478 131.68L226.343 131.768L226.161 131.924V131.557L225.874 131.924L225.672 131.672L225.535 131.557V131.254H226.501V130.921L226.319 130.811L226.278 130.764L226.266 130.706L226.161 130.557H225.874V130.921H225.535L225.379 130.694L225.096 130.433L224.936 130.222H224.6L224.806 130.749L224.937 130.922V131.255L224.02 130.613L222.979 129.157L222.409 128.546L221.085 127.705L220.574 127.02L220.709 126.12L221.782 125.739L222.096 125.533L222.263 125.205L222.251 124.846L222.322 124.483L222.747 124.163L222.407 124.529L223.034 125.178L224.447 125.391L224.936 125.868H225.223L225.271 125.047L225.741 124.877L226.349 125.117L226.815 125.534V125.87L226.67 126.393L227.218 126.758L227.953 126.935L228.382 126.875H228.695L228.87 127.207L229.075 127.488L229.321 127.722L229.635 127.909L228.677 127.68L228.382 127.546V127.906H228.379ZM217.37 124.012L217.621 124.691L219.272 126.874L219.496 128.119L218.904 128.443L218.11 128.279L217.71 128.061L217.483 127.262L216.566 125.306L216.432 124.164L216.186 124.589L216.115 125.02L216.204 125.452L216.432 125.868H216.093L215.503 125.493L214.794 125.361L214.189 125.056L213.959 124.163L214.324 122.78L214.866 121.513L216.66 122.28L217.182 122.906L217.37 124.012ZM248.775 122.52L249.882 120.272L250.05 119.475L250.195 119.631L250.266 119.784L250.333 120.143L250.06 121.261L249.68 122.086L247.51 125.32L247.231 125.867L246.907 126.863L246.567 127.216L245.955 127.235L246.705 125.5L246.784 124.721L246.269 124.163V123.858L247.22 123.82L247.869 123.643L248.35 123.238L248.775 122.52ZM258.845 117.127L259.437 117.303L261.03 118.497V118.802L260.553 118.611L260.403 118.497H260.12L260.352 119.462L260.02 120.217L259.349 120.782L258.533 121.177L259.398 119.54L259.473 118.971L259.226 118.674L258.767 118.408L258.503 117.958L258.845 117.127ZM249.11 117.127L249.737 116.404L250.005 116.24L250.285 116.412L250.109 117.059L249.4 118.802L248.931 120.526L248.629 121.236L248.148 121.847L247.499 122.222L246.761 122.408L245.642 122.518L243.583 123.049L242.799 123.156V122.851L244.141 122.27L245.372 121.552L246.431 120.732L247.229 119.839L247.106 119.293L247.263 118.538L247.827 117.127L248.025 117.264L248.518 117.462L248.649 117.024L249.112 116.125V117.127H249.11ZM253.168 112.419L253.489 112.215L253.665 112.28L253.653 112.619L252.008 116.195L251.717 117.717L251.258 118.944L250.333 118.802L250.822 118.611L250.885 118.306L250.766 117.874L250.677 117.295L250.822 116.808L251.467 116.168L251.616 115.616L251.691 114.516L251.784 114.101L251.93 113.743L252.097 113.502L253.168 112.419ZM251.303 107.705L252.34 107.344L252.477 107.436L252.265 108.04L251.75 108.634L250.24 109.68L249.771 110.421H249.401L248.718 110.261L247.801 111.257L246.269 113.41L245.761 113.688L244.646 114.119L244.076 114.447L242.51 115.785L241.786 115.194L242.095 114.094L242.766 112.871L243.143 111.9L243.232 111.334L243.642 109.949L243.866 108.457L244.175 108.453L244.511 108.857L244.645 108.821L244.693 108.406L244.913 108.133L245.328 108.042L245.126 107.702L245.081 106.945L245.16 105.682L245.275 105.083L245.394 104.782L245.562 104.574L245.738 104.497L245.917 104.49L246.103 104.534L246.297 104.634L246.768 105.013L247.827 106.367L248.132 106.584L248.438 106.644L248.672 106.778L248.773 107.207L248.785 107.606L248.83 107.903L248.938 108.132L249.11 108.348H249.401L249.714 108.162L251.303 107.705ZM261.977 100.4L262.074 100.518L262.194 100.716L262.246 100.905L262.141 100.989L261.787 101.057L257.301 103.005L257.434 102.879L257.96 102.222L260.623 100.605L261.373 100.305L261.977 100.4ZM264.506 98.9441L270.447 98.2717V98.5784L268.668 99.7436L267.967 100.025L267.601 99.6165H267.314L266.967 99.8026L263.845 100.896L263.245 100.987L263.356 100.48L263.565 99.9179L263.811 100.411L263.878 100.623L264.08 100.222L264.348 99.9258L264.696 99.7239L263.752 99.6702L262.592 99.9179V99.6152L264.114 99.1328L264.506 98.9441ZM241.637 126.657L242.166 127.001L242.316 127.3L242.275 127.961L242.122 128.047L241.894 127.733L241.603 127.574L241.233 127.638L240.748 127.39L240.374 126.533L240.326 125.838L240.506 125.842L241.061 126.488L241.637 126.657ZM242.211 123.619L242.677 123.776L242.807 124.075L242.696 124.271L242.565 124.408V124.518L242.569 124.622L242.472 124.741L241.859 125.019L241.546 125.065L241.245 125.001L240.928 124.753L240.439 124.134L240.305 124.23L240.07 124.154L239.935 123.842L239.996 123.598L240.242 123.495L240.555 123.602L240.798 123.712L240.988 123.655L241.469 123.59L242.211 123.619ZM262.537 116.891L263.291 116.37L263.939 116.484L263.779 117.139L263.395 117.535L262.616 118.653L262.171 118.694L262.119 117.831L262.537 116.891Z"
              />
              </svg>

  
    