<?xml version="1.0" encoding="UTF-8" standalone="no"?>
  <svg
     width="768"
              height="868"
              viewBox="-216 -95 768 868"
              xmlns="http://www.w3.org/2000/svg">
              <path
              style="fill:#83a99c"
              d="M188.527 659.795L189.109 660.374L191.672 660.968L192.254 661.399L192.195 662.56L191.908 663.385L191.247 663.812L190.061 663.79V663.503L190.291 662.622L189.602 661.635L188.606 660.78L187.901 660.302L187.561 660.592L188.248 661.454L189.02 662.048L189.255 662.389L188.359 662.495L187.882 662.086L186.312 659.639L185.167 658.243L184.645 657.403L184.433 656.625L184.265 655.614L183.855 654.883L182.866 653.582L183.153 653.291L183.258 653.53L183.408 653.674L183.781 653.927L185.996 657.101L188.193 659.277L188.527 659.795ZM174.385 646.042L182.24 653.89L182.527 654.688L182.699 655.511L183.131 656.447L187.901 663.501L188.202 664.167L188.392 664.881L188.526 666.806L188.302 667.395L186.624 669.213L187.068 669.667L187.479 669.85L187.788 670.106L187.899 670.769L187.732 671.483L187.299 671.814L185.994 672.063L179.706 673.995L172.833 676.806L171.234 671.738L170.761 671.078L169.787 670.49L169.06 670.331L168.463 670.414L167.462 670.89L166.772 670.992L164.774 670.803L163.826 670.548L163.13 670.245L162.156 669.545L161.713 669.394L160.527 669.221L159.916 668.19L159.511 667.304L159.132 660.28L163.935 658.863L169.382 655.541L170.049 655.332L170.639 655.224L170.909 655.016L171.05 654.713L171.079 654.131L171.179 653.569L174.385 646.042ZM209.236 700.697L208.163 700.806L208.177 701.316L208.644 701.994L208.923 702.595L208.341 702.367L207.86 702.392L207.401 702.521L206.876 702.597L206.473 702.789L206.388 703.241L206.418 703.766L206.388 704.179L206.429 704.392L206.507 704.598L206.336 704.75L205.604 704.813L205.378 704.61L204.662 703.67L204.516 703.387L205.038 702.269L206.277 701.046L207.772 700.015L209.044 699.454L209.237 699.527L209.395 699.616L209.496 699.776L209.518 700.064L209.387 700.093L208.924 700.064L209.155 700.347L209.199 700.484L209.236 700.697Z"
              />
              </svg>

  
    