<?xml version="1.0" encoding="UTF-8" standalone="no"?>
  <svg
     width="768"
              height="868"
              viewBox="-216 -95 768 868"
              xmlns="http://www.w3.org/2000/svg">
              <path
              style="fill:#83a99c"
              d="M198.787 563.848L199.966 564.265L200.473 565.011L201.19 567.865L201.325 568.757L201.296 569.335L201.111 569.47L200.856 569.538L200.642 569.571L200.149 569.702L198.614 572.51L197.752 573.522L197.326 573.872L196.601 574.589L196.232 575.133L195.043 577.741L194.768 578.565L194.602 579.47L194.517 581.309L194.588 582.051L194.758 582.82L195.014 583.514L195.542 584.495L195.806 584.869L195.99 585.214L196.154 585.627L196.233 586.037L196.347 586.392L196.524 586.692L196.815 586.967L197.578 587.534L198.182 588.254L198.558 589.758L198.054 592.522L197.739 593.428L197.213 594.453L196.802 595.09L195.537 596.39L193.941 594.977L193.353 594.626L192.748 594.408L192.449 594.499L192.321 594.799L192.33 595.175L192.4 595.596L192.277 595.947L191.927 596.226L188.147 597.389L187.513 597.352L187.044 597.239L186.678 596.927L187.156 596.943L187.479 596.661L186.965 595.732L186.217 593.057L185.686 592.253L184.867 591.622L184.071 591.496L183.366 591.917L182.84 592.924L182.376 591.958L181.76 591.197L180.16 589.827L179.473 589.051L178.355 587.291L177.677 586.665L175.224 586.06L174.281 585.347L173.803 584.055V584.048L173.68 583.042L173.074 582.67L172.326 582.48L171.741 582.016L171.697 581.351L172.454 577.836L172.962 576.247L173.09 575.547L173.014 574.836L172.304 572.366L172.403 571.149L172.356 570.526L172.145 570L171.638 569.622L170.418 569.396L169.859 569.093L169.394 568.314L169.268 568.103L169.406 567.172L169.931 566.348L170.533 565.69L170.669 565.573L171.58 564.793L172.361 564.633L174.542 565.441L175.852 565.509L176.406 564.844L176.823 563.865L178.097 562.523L178.358 561.948L178.474 561.316L178.512 560.667L179.581 559.535L181.679 559.89L184.062 560.63L185.961 560.667L189.122 561.666L190.02 562.152L190.366 562.55L191.024 563.583L191.436 563.92L192.041 564.024L194.622 563.346L195.11 563.295L195.562 563.37L196.199 563.59L197.208 564.305L197.79 564.623L198.386 564.608L198.808 563.898L198.787 563.848Z"
              />
              </svg>

  
    