<?xml version="1.0" encoding="UTF-8" standalone="no"?>
  <svg
     width="768"
              height="868"
              viewBox="-216 -95 768 868"
              xmlns="http://www.w3.org/2000/svg">
              <path
              style="fill:#83a99c"
              d="M130.555 167.415L130.73 167.263L130.9 166.592L130.82 165.994L130.676 165.401L130.591 164.498L130.462 164.071L130.477 163.771L130.638 163.653L131.266 163.527L131.415 163.333L131.069 162.566L129.305 161.399L128.686 160.476L128.619 159.38L128.872 158.857L128.828 158.49L124.757 156.261L122.907 156.356L120.835 157.052L118.877 157.453L117.328 156.664L117.143 156.025L117.096 155.033L117.167 154.038L117.342 153.396L117.73 153.098L118.109 153.118L118.464 153.012L118.775 152.348L118.805 151.911L118.732 151.339L118.591 150.785L118.421 150.397L117.755 149.868L116.015 149.183L115.275 148.648L114.224 147.178L113.59 146.824L107.03 146.971L105.159 146.5L103.706 145.568L104.009 144.651L106.633 142.843H106.638L107.609 140.927L108.742 141.83L109.939 142.037L111.081 141.678L112.085 140.873L115.046 136.793L115.359 135.64L116.69 135.655L118.219 136.544L118.927 137.212L120.565 138.446L121.311 138.823L122.036 138.994L122.791 138.952L123.657 138.589L124.339 138.195L125.845 136.468L127.268 136.784L129.367 137.845L130.255 138.171L136.1 138.929L136.983 138.895L138.326 138.341L139.366 138.176L140.012 138.387L140.594 138.86L142.067 140.985L142.81 141.708L147.193 144.758L153.912 148.203L155.555 148.8L156.701 149.099L157.91 149.12L167.637 157.45L170.596 159.45L172.538 160.489L175.154 161.244L176.326 162.009L177.238 162.732L178.069 163.23L178.858 163.468L180.417 163.614L181.156 163.772L181.617 164.104L181.961 164.565L182.089 165.038L182.104 165.399L182.004 165.687L181.824 165.938L181.575 166.184L180.453 167.039L180.439 167.234L180.438 167.251L180.333 167.083H180.024L179.777 167.724L179.252 168.337L177.238 170.199L176.836 170.677L176.557 171.415V171.879L176.882 172.64L176.894 173.106L175.932 174.437L175.764 175.161L175.772 176.527L175.614 177.099L175.473 176.915L174.992 176.432L174.701 176.942L174.048 177.407L172.799 178.096L173.086 178.46L173.694 178.17L175.004 178.031L175.616 177.761L175.363 178.405L174.542 179.524L174.367 180.283L174.076 180.617L173.427 180.578L172.778 180.629L172.487 181.267L172.275 182.063L171.246 183.692L170.898 184.467L170.813 185.227L170.805 186.573L170.581 187.125L170.514 186.034L169.888 185.888L169.292 186.353L169.332 187.125L169.514 186.787L169.846 186.379L169.957 186.099L170.192 186.542L170.311 187.02L170.337 187.54L170.382 187.766L170.58 187.789L170.594 189.601L170.079 193.292L170.292 195.119L169.643 194.758L169.016 196.085L168.39 195.782V196.085L168.909 196.517L169.107 197.066L169.331 198.435L170.17 200.057L170.293 200.759L169.331 200.094L169.442 200.569L169.644 201.118L169.98 200.995L170.204 201.118L170.111 202.063L169.995 202.347L168.041 201.398L165.126 200.98L164.53 200.641L162.02 198.081L161.094 197.427L160.434 197.137L159.923 196.833L159.476 196.382L158.301 194.505L157.539 193.612L156.274 192.828L155.215 192.657L153.046 192.884L152.12 192.687L151.424 192.162L150.032 190.16L149.399 189.424L148.744 189.041L148.124 188.969L147.598 189.151L147.143 189.535L146.143 190.573L145.744 190.691L145.502 190.438L145.453 189.593L145.544 187.586L145.453 186.577L145.069 185.547L144.387 184.632L141.763 182.261L140.754 180.971L139.771 178.837L139.384 177.428L139.287 176.245L139.464 175.443L139.819 174.778L140.956 173.593L141.278 172.976V172.352L140.8 171.69L140.004 171.186L137.288 170.412L135.936 169.888L133.711 168.513L131.351 167.601L130.555 167.415Z"
              />
              </svg>

  
    