<?xml version="1.0" encoding="UTF-8" standalone="no"?>
  <svg
     width="768"
              height="868"
              viewBox="-216 -95 768 868"
              xmlns="http://www.w3.org/2000/svg">
              <path
              style="fill:#83a99c"
              d="M212.056 629.661L213.096 629.915L213.496 630.176L213.646 630.789L213.355 631.176L212.706 631.498L212.057 631.621L211.766 631.412L211.378 630.826L210.491 630.444L204.517 629.345L202.324 628.389L203.029 628.333L204.577 628.996L205.816 629.273L211.082 629.335L212.056 629.661ZM207.074 621.836L207.745 621.407L208.264 620.795L208.611 620.09H208.924L209.149 620.74L209.253 621.495L209.585 622.024L210.484 622.002L210.86 621.633L211.576 620.369L212.057 620.09L212.833 620.373L213.322 621.048L213.691 621.849L214.116 622.494L214.709 623.181L214.988 623.863L215.323 627.883L215.111 628.907L214.414 629.349L213.518 629.265L211.14 628.712L206.291 628.737L202.942 628.082L201.216 628.075L200.321 627.861L199.602 627.449L198.93 627.183L198.229 627.411L197.778 627.126L196.238 626.511L195.668 626.405L195.112 626.386L194.561 626.459L192.275 627.288L191.674 627.4L189.336 627.337L188.217 627.481L186.125 628.288L185.256 628.368L183.787 628.376L182.679 628.149L180.475 627.326L179.751 627.212L179.032 627.22L178.312 627.33L177.645 627.58L176.854 628.17L176.809 628.737L174.194 628.654L171.956 628.135L171.774 627.899L171.511 626.145L171.66 625.756L171.925 625.321L172.365 625.025L176.516 619.783L176.945 618.702L177.177 617.889L177.162 616.392L178.976 616.493L181.202 616.855L182.467 616.837L183.407 616.62L183.882 616.256L184.707 615.164L185.555 614.694L186.5 614.585L191.293 614.858L192.086 615.016L192.678 615.331L193.271 615.841L195.184 618.571L195.816 618.998L196.62 619.323L197.908 619.537L198.618 619.833L199.065 620.203L199.215 620.655L199.229 621.089L199.08 622.036L199.179 622.466L199.599 622.785L200.238 622.9L202.351 622.748L203.704 622.903L205.671 622.874L206.719 622.393L207.074 621.836Z"
              />
              </svg>

  
    