<?xml version="1.0" encoding="UTF-8" standalone="no"?>
  <svg
     width="768"
              height="868"
              viewBox="-216 -95 768 868"
              xmlns="http://www.w3.org/2000/svg">
              <path
              style="fill:#83a99c"
              d="M227.692 100.399L225.367 101.647L225.041 102.027L224.636 102.655L224.136 105.752L223.812 106.791L223.436 107.724L223.029 108.377L222.312 108.801L221.217 109.103L219.077 109.4L216.652 110.153L213.666 110.177L203.889 108.603L203.143 107.929L202.418 107.444L201.236 106.918L199.85 106.688L198.221 106.774L196.557 107.173L195.019 108.036L193.974 108.884L192.533 111.536L191.735 111.09L190.931 110.216L190.37 109.862L189.302 109.382L188.691 109.211L183.599 108.376L182.76 108.067L182.153 107.96L181.009 107.979L180.193 107.71L176.351 105.96L176.401 105.061L176.16 103.943L175.243 101.998L177.548 98.0253L177.974 97.8182L178.443 97.792L178.983 97.8838L179.738 97.8536L180.498 97.4984L181.229 96.7854L181.949 95.4367L182.181 94.4209L182.166 93.4064L180.702 88.1755L180.646 87.6119L180.775 87.2069L181.18 86.9971L181.925 86.984L184.691 87.3406L185.46 87.5739L185.986 88.0654L186.262 88.4782L186.547 90.0484L186.127 91.2844L186.192 92.0132L186.455 92.6921L187.03 93.1299L187.885 93.43L189.37 93.6109L190.808 93.9805L192.25 94.6463L195.044 97.2861L195.984 97.7396L197.141 97.9152L198.841 97.5941L199.949 96.944L200.773 96.0816L201.33 95.0304L202.795 91.3224L203.626 90.1664L204.501 89.2673L205.467 88.6526L206.606 88.3065L207.788 88.1361L209.058 88.2462L210.129 88.6801L211.805 90.4954L212.43 91.0262L213.135 91.1088L213.626 90.8309L214.662 89.8571L215.294 89.3787L216.049 88.9684L216.809 88.7482L217.335 88.9435L217.598 89.5897L217.752 90.4181L218.174 91.5177L218.858 92.7013L220.073 94.4248L220.542 95.4655L221.12 96.2428L222.144 96.6412L223.095 96.5822L223.929 96.3267L224.546 96.2126L225.008 96.404L225.321 97.1589L225.328 98.6348L225.543 99.2259L225.798 99.6348L227.692 100.399Z"
              />
              </svg>

  
    