<?xml version="1.0" encoding="UTF-8" standalone="no"?>
  <svg
     width="768"
              height="868"
              viewBox="-216 -95 768 868"
              xmlns="http://www.w3.org/2000/svg">
              <path
              style="fill:#83a99c"
              d="M172.834 676.807L167.871 678.84L157.734 682.627L156.608 683.59L154.595 685.754L153.376 686.704L152.887 687.317L152.685 688.132L152.57 688.258L152.302 687.09L152.011 686.59L151.287 685.927L149.722 685.453L149.132 685.204L148.653 684.664L148.218 683.871L147.579 681.466V680.567L147.622 680.121L147.558 679.763L147.294 679.518L147.039 679.45L146.754 679.425L146.478 679.429L146.24 679.338L146.027 679.108L145.927 678.585L145.922 677.667L146.466 676.497L146.965 675.725L147.399 675.189L147.563 674.835L147.478 674.522L147.052 674.072L146.555 673.676L146.206 673.279L146.177 672.916L146.547 672.356L146.909 672.014L147.023 671.604L147.008 671.352L145.869 669.793L146.554 669.435L146.689 669.143L146.736 668.897L146.607 668.663L145.991 667.891L145.797 667.297L145.962 666.752L146.814 665.497L147.255 664.694L147.126 663.788L146.445 661.35L146.606 660.753L147.084 660.518L147.901 660.636L151.015 661.379L154.238 661.35L157.502 660.796L159.128 660.284L159.507 667.308L159.912 668.194L160.523 669.225L161.709 669.398L162.152 669.549L163.126 670.249L163.822 670.552L164.77 670.807L166.768 670.996L167.458 670.894L168.459 670.418L169.056 670.335L169.783 670.494L170.757 671.082L171.23 671.742L172.834 676.807Z"
              />
              </svg>

  
    