<?xml version="1.0" encoding="UTF-8" standalone="no"?>
  <svg
     width="768"
              height="868"
              viewBox="-216 -95 768 868"
              xmlns="http://www.w3.org/2000/svg">
              <path
              style="fill:#83a99c"
              d="M185.844 118.224L182.38 118.026L179.915 118.228L179.089 118.544L179.459 117.287L179.497 116.591L179.345 115.874L178.795 115.033L178.144 114.471L176.65 113.421L176.081 112.768L175.62 111.858L175.3 110.727L175.144 109.659L175.101 108.697L175.25 107.863L175.428 107.224L176.352 105.958L180.194 107.707L181.011 107.976L182.155 107.958L182.762 108.064L183.6 108.373L188.692 109.208L189.303 109.38L190.371 109.86L190.932 110.213L191.736 111.088L192.534 111.533L193.28 114.62L193.348 115.636L193.244 116.598L192.936 117.463L192.396 118.091L191.63 118.574L190.294 118.778L189.255 118.829L185.844 118.224Z"
              />
              </svg>

  
    