<?xml version="1.0" encoding="UTF-8" standalone="no"?>
  <svg
     width="768"
              height="868"
              viewBox="-216 -95 768 868"
              xmlns="http://www.w3.org/2000/svg">
              <path
              style="fill:#83a99c"
              d="M198.226 627.409L200.882 629.092L211.906 632.87L212.152 633.02L212.89 633.678L213.163 633.826L213.405 633.924L213.622 634.144L213.935 634.362L214.412 634.463L214.875 634.489L215.218 634.603L215.423 634.85L215.489 635.272L215.4 636.331L215.132 637.04L212.648 639.648L211.906 640.078L211.138 639.892L211.373 639.533L211.421 639.103L211.332 638.665L211.138 638.274H210.795L210.589 639.067L210.481 639.255L209.885 639.876L209.628 640.259L209.517 640.659L209.692 640.795L210.013 641.191L210.222 641.607L210.013 641.796L209.312 641.883L209.155 642.099L209.163 642.406L208.842 642.864L208.73 643.213L208.611 643.361L208.425 643.407L206.709 643.339L205.959 643.062L205.311 642.585L204.672 641.96L203.979 641.453L201.697 640.5L200.361 639.423L199.191 638L195.365 631.895L194.052 630.553L192.255 629.984L192.501 630.253L192.748 630.374L192.982 630.463L194.358 631.548L194.884 632.165L195.286 633.946L195.76 634.908L200.03 640.504L201.071 641.453L204.605 643.136L207.022 645.002L209.603 646.381L210.327 646.564L210.781 646.979L210.64 647.916L210.147 648.905L209.517 649.477V649.132L209.808 648.79L209.87 648.364L209.763 647.929L209.517 647.575H209.237L209.021 649.208L208.104 650.261L206.887 650.677L205.761 650.404L204.688 649.528L201.988 646.566L200.858 645.705L196.976 643.361L185.511 631.527L185.127 631.249L184.707 631.022L184.434 630.966L184.288 631.085L183.489 630.574L182.219 630.038L178.165 628.941L176.806 628.739L176.852 628.173L177.642 627.583L178.309 627.333L179.029 627.223L179.748 627.215L180.472 627.329L182.676 628.152L183.784 628.379L185.253 628.371L186.122 628.291L188.214 627.483L189.333 627.339L191.672 627.402L192.272 627.291L194.558 626.461L195.109 626.389L195.665 626.407L196.235 626.514L197.775 627.128L198.226 627.409ZM201.696 647.228L203.206 648.772L203.806 649.7L203.418 650.113L202.747 649.715L201.639 647.971L200.342 647.271L198.228 645.293V645.003L198.436 645.14L199.167 645.293L201.144 646.696L201.696 647.228Z"
              />
              </svg>

  
    