<?xml version="1.0" encoding="UTF-8" standalone="no"?>
  <svg
     width="768"
              height="868"
              viewBox="-216 -95 768 868"
              xmlns="http://www.w3.org/2000/svg">
              <path
              style="fill:#83a99c"
              d="M215.1 545.633L215.669 545.584L219.167 545.852L220.863 545.656L222.563 544.992L223.676 544.235L226.807 541.088L228.254 539.288L229.476 538.423L230.025 537.912L230.333 537.25L231.688 535.806L234.409 534.461L235.139 534.232L235.188 534.74L236.033 545.73L236.526 547.848L237.208 549.028L239.803 550.803L240.528 551.562L241.182 552.623L241.519 553.65L241.831 555.794L242.119 556.595L242.483 557.257L242.874 557.816L243.038 558.275L243.044 558.845L242.589 560.418L239.71 562.007L239.252 562.448L238.622 563.186L237.732 564.952L237.555 565.649L237.605 566.215L238.301 567.109L238.609 567.73L238.784 568.19L238.837 569.1L235.423 570.875L231.126 572.225L230.16 572.761L229.479 573.345L229.08 574.092L228.824 574.699L228.669 575.29L228.602 576.111L228.54 576.452L228.375 576.745L227.785 577.475L227.316 578.372L226.832 579.013L225.878 579.996L225.132 580.528L224.756 580.891L224.592 581.148L224.393 581.554L224.117 581.805L223.084 582.313L221.625 582.245L219.412 581.559L216.081 580.164L215.133 579.899L214.508 579.895L214.294 580.174L213.925 580.569L213.399 580.979L212.295 581.305L211.784 581.225L211.543 581.001L211.628 580.685L212.075 580.145L212.111 579.804L211.919 579.413L211.223 578.807L210.776 578.706L210.442 578.899L210.304 579.373L210.205 579.929L209.92 580.368L209.428 580.662L208.549 580.766L208.121 580.633L207.889 580.326L207.847 579.616L207.691 579.284L207.206 578.682L207.057 578.284L207.004 577.841L207.042 577.435L207.198 576.672L207.269 575.733L207.24 575.402L206.941 574.995L206.422 574.568L205.093 573.766L204.395 573.444L203.748 573.255L203.173 573.154L202.915 573.043L202.754 572.877L202.697 572.696L202.598 572.167L202.442 571.795L202.077 571.339L201.573 570.846L200.919 570.377L200.149 569.699L200.642 569.568L200.856 569.535L201.111 569.467L201.296 569.332L201.325 568.754L201.19 567.863L200.473 565.008L199.966 564.262L198.787 563.845L198.398 562.814L197.15 560.668L197.101 559.928L197.347 559.284L197.723 558.663L198.04 557.996L198.102 557.592L198.131 556.706L198.183 556.397L198.861 555.291L198.979 555.171L198.721 554.017L197.364 551.463L196.992 550.39L196.927 550.202L198.002 549.919L198.537 549.873L199.129 549.965L199.541 550.265L199.728 550.674L199.975 550.994L200.582 551.032L201.993 550.035L204.189 550.061L208.137 550.607L207.772 549.904L210.057 550.424L211.023 550.155L211.918 548.957L212.453 547.434L213.206 546.335L214.248 545.703L215.1 545.633Z"
              />
              </svg>

  
    