<?xml version="1.0" encoding="UTF-8" standalone="no"?>
  <svg
     width="768"
              height="868"
              viewBox="-216 -95 768 868"
              xmlns="http://www.w3.org/2000/svg">
              <path
              style="fill:#83a99c"
              d="M312.042 580.452L311.295 580.112L310.571 579.96L309.759 579.956L308.93 580.107L308.162 580.436L306.63 581.512L306.048 582.082L305.634 582.668L305.254 583.516L304.694 585.885L304.347 586.699L303.948 587.079L303.404 587.189L302.629 587.19L302.166 587.081L301.192 586.625L300.6 586.551L300.141 586.659L299.213 587.066L298.72 587.189H296.986L296.721 587.336L296.162 587.97L294.871 588.397L294.08 589.076L293.454 589.912L293.058 590.667L292.611 592.565L292.171 593.073L291.011 593.246L290.649 593.375L289.02 594.204L288.539 594.292L287.771 594.33L287.427 594.493L287.151 595.103L286.558 597.243L286.334 597.712L285.428 597.817L284.98 598.155L284.275 599.625H283.984L283.6 598.2L282.377 597.805L276.712 598.931L275.403 599.376L274.855 600.129L274.609 600.595L273.535 601.717L273.289 602.36L273.143 602.924L272.494 604.24L272.147 606.159L270.447 609.582H270.134L269.638 609.282L267.606 608.68L266.834 608.569L265.86 608.621L265.132 608.76L262.454 609.908L260.545 611.521L259.908 611.873L258.21 612.449L255.231 614.041L254.235 614.185L253.172 614.56L251.576 615.45L251.236 613.542L248.371 606.937L250.497 604.802L251.165 603.828L251.772 602.514L251.843 601.102L251.664 599.672L251.217 598.343L250.783 597.408L250.243 596.503L249.674 595.921L249.049 595.548L248.3 595.483L247.505 595.581L246.557 595.487L245.768 595.142L244.929 594.491L244.446 593.776L244.722 593.115L245.476 591.907L245.86 591.121L246.045 589.874L246.556 588.591L247.446 587.033L247.904 585.727L248.134 585.239L249.173 583.549L249.819 582.048L250.806 580.272L251.285 579.591L251.73 579.097L252.067 578.85L252.281 578.731L252.63 578.659L254.792 579.449L256.379 580.215L258.006 580.631L259.359 580.845L270.991 581.473L271.986 581.81L272.628 582.304L272.933 582.898L273.04 583.491L273.075 584.181L273.004 585.045L272.933 585.4L272.948 585.7L273.139 585.979L273.551 586.056L274.112 585.874L274.766 585.342L275.948 583.679L276.565 582.975L277.517 582.406L278.653 582.078L280.605 581.774L282.005 581.238L283.378 580.498L284.523 579.683L285.413 578.913L285.909 578.334L286.044 577.836L285.929 577.347L285.247 576.142L284.977 575.402L284.901 574.576L284.945 573.741L285.144 572.997L285.513 572.428L286.16 571.822L287.284 571.273L288.236 571.078L294.066 570.897L295.055 571.014L296.37 571.698L297.122 571.951L297.627 571.749L297.997 571.223L298.539 569.846L298.944 569.201L301.085 569.257L301.809 569.564L302.463 569.961L302.828 570.479L303.003 571.037L303.169 572.32L303.297 572.837L303.588 573.289L304.022 573.516L305.18 573.819L305.486 574.132L305.6 574.63L305.714 575.954L305.899 576.508L306.207 576.779L306.697 576.845L308.135 576.736L309.044 576.889L310.3 577.433L311.143 578.209L311.716 579.112L311.938 579.773L312.042 580.447V580.452ZM313.718 616.459L314.472 617.13L314.8 618.058L314.553 618.746L313.61 618.684L313.151 618.202L312.957 617.472L313.117 616.791L313.718 616.459Z"
              />
              </svg>

  
    