<?xml version="1.0" encoding="UTF-8" standalone="no"?>
  <svg
     width="768"
              height="868"
              viewBox="-216 -95 768 868"
              xmlns="http://www.w3.org/2000/svg">
              <path
              style="fill:#83a99c"
              d="M37.9943 111.211L37.9825 111.161L37.4687 110.338L36.9995 110.054L36.6207 110.035L36.3087 109.943L36.0295 109.451V108.976L36.4319 107.998L36.487 107.551L36.2524 106.969L35.8068 106.444L35.2104 106.022L34.5262 105.753L33.517 105.715L32.6453 105.807L32.2849 105.599L32.8105 104.661L33.5615 104.072L35.1121 103.682L35.6704 103.116L35.8356 102.288L35.8736 100.037L36.0649 99.0306L37.5762 96.556L37.6326 95.9911L36.9982 95.864L36.1082 96.2887L35.192 96.8745L34.5 97.2075L36.5774 93.7669L37.567 92.8651L39.2866 90.7117L40.2028 89.823L40.2408 89.6828L40.2579 89.5425L40.2408 89.3997L40.2028 89.262L39.7454 88.182L39.5933 86.9867L39.6366 83.5998L39.5514 83.031L39.3744 82.4936L38.9983 81.8435L38.761 81.7518L38.5028 81.9458L35.1802 83.3967L34.3873 83.4557L33.8355 82.8645L33.686 81.9117L33.8263 79.9456L33.4383 77.6912L32.5339 76.9612L31.7292 77.7397L31.6152 81.7085L31.066 83.2892L30.0332 84.6196L28.6123 85.5672L28.1143 85.6838L25.6921 85.7271L25.5099 85.832L25.3815 85.7586L25.0447 85.2539L24.7458 84.4846L24.5203 83.3679L24.4234 82.2407L24.6436 79.3467L24.2097 77.3295L22.6474 73.7395L21.2358 72.5494L19.2042 71.8705L17.4701 70.9621L16.9354 69.0957L16.9786 68.9044L17.0586 68.7261L17.1582 68.5701L17.288 68.4273L17.6903 67.8086L16.9917 67.1847L15.8449 66.5202L14.9064 65.7888L14.5892 65.2318L14.1397 64.005L13.8369 63.4807L13.4083 63.0744L11.9705 62.2028L8.68852 58.9706L5.9295 57.5656L5.04612 56.7241L4.75248 55.7319L4.09454 55.0923L3.30155 54.5339L2.63573 53.7895L2.56497 53.4854L2.717 52.8995V52.6282L2.56757 52.4106L2.17046 52.1092L2.04198 51.9322L1.58323 50.3672L1.31063 49.8757L1 49.1863L1.46659 48.5257L2.30021 48.0211L3.10364 47.8009L4.11289 48.0211L4.89144 48.4471L5.55462 48.5362L6.16281 47.7603L6.40661 46.9123L6.6766 45.2385L7.13663 44.3315L10.4409 40.8765L12.943 40.3549L13.9758 40.4099L16.5527 41.0338L18.8687 40.7952L19.5397 41.0338L20.1741 42.0391L20.8268 42.566L21.2515 42.6997L21.6054 42.8937L22.03 43.7482L25.1181 47.2714L25.9385 47.8927L27.7066 48.3553L29.3476 49.4196L31.1603 51.0304L32.2377 52.4906L33.0281 54.1669L33.3898 55.9862V57.3401L33.5314 57.5695L33.9338 58.023L34.306 58.7032L34.9888 58.7046L36.331 58.3546L37.1882 58.8265L37.5618 59.9261L37.8304 61.1647L38.3941 62.0704L39.1844 62.1307L43.2344 61.5592L44.4468 61.942L45.7785 62.8241L47.8114 64.6354L49.5153 64.5162L53.5063 66.4901L54.412 66.1821L54.2587 66.0235L53.9192 65.7613L53.5837 65.4454L53.446 65.1073L53.6033 64.832L56.2365 61.4727L56.9154 61.0559L57.9299 61.0481L58.9523 61.4491L59.7243 62.1255L60.0414 62.9328L60.1646 64.1308L60.4779 64.8412L61.6077 65.819L62.111 66.4743L62.3902 67.3171L62.5134 68.2923L62.5475 69.3434L62.7153 69.5794L63.5698 70.1259L63.9683 70.2347L64.1885 70.4536L66.3184 74.1458L66.6133 74.4512L66.916 81.0348L67.4796 84.959L67.4508 86.5227L67.1244 88.0863L66.4193 89.3564L65.5005 90.5242L63.4257 92.3343L62.7585 93.2872L62.4322 94.1326L62.1975 95.2427L61.807 95.8745L61.3574 96.3201L59.5814 97.1052L59.0741 97.5351L58.7046 98.1564L58.6338 98.6872L58.7989 99.0804L59.1331 99.3151L59.4175 99.5759L59.5526 100.075L59.4031 100.745L59.4949 101.289L59.8081 101.787L61.5081 103.128L61.8489 103.893L62.0048 105.022L61.8843 106.907L61.5697 108.305L60.6981 110.254L60.5749 110.953L60.7033 111.718L61.3705 113.549L61.4505 114.543L61.1424 115.1L60.5028 115.422L59.7072 115.547L58.7976 115.54L57.9718 115.376L57.2169 115.02L56.5629 114.497L55.9809 114.144L55.3845 113.992L54.9088 114.038L54.5746 114.291L54.4749 114.68L54.5313 115.226L54.6951 115.99L54.7502 116.897L54.5746 117.577L54.1774 118.055L53.1944 118.663L52.7828 119.226L52.577 119.918L52.4119 121.658L51.8535 123.495L51.6687 125.109L51.7395 126.47L51.7421 126.619V126.635L51.4105 126.736L50.8758 126.726L50.4262 126.566L49.8102 126.112L49.4248 125.909L48.9582 125.787L48.1299 125.673L47.6449 125.456L47.3539 125.238L46.6789 124.576L45.3696 122.928L44.5215 121.491L43.0955 118.341L42.0614 116.129L41.3575 115.302L40.2093 114.797L39.5396 114.889L39.1778 114.731L38.9603 114.395L38.7466 113.953L38.4321 113.092L37.9943 111.211Z"
              />
              </svg>

  
    