<?xml version="1.0" encoding="UTF-8" standalone="no"?>
  <svg
     width="768"
              height="868"
              viewBox="-216 -95 768 868"
              xmlns="http://www.w3.org/2000/svg">
              <path
              style="fill:#83a99c"
              d="M250.434 489.521L251.044 488.032L252.512 484.448L252.675 483.006L252.391 478.38L252.053 476.658L248.266 469.233L247.461 468.077L246.41 466.917L246.318 466.707L245.883 465.994L245.012 464.943L244.78 464.234L244.797 463.74L245.093 462.725L245.149 462.303L244.653 460.873L244.856 460.082L245.106 459.546L245.232 459.003L245.138 458.421L246.104 457.903L249.083 455.834L250.897 454.192L252.582 452.359L253.563 450.721L254.159 449.393L254.864 448.195L255.901 447.212L257.694 445.95L260.773 444.519L277.546 439.121L282.467 436.812L285.939 434.359L288.059 432.323L289.359 430.316L289.894 428.944L290.055 427.963L289.999 427.36L289.843 426.958L289.324 426.187L289.224 425.819L289.288 425.392L289.608 425.183L290.055 425.084L290.689 425.11L291.265 425.254L292.281 425.755L292.665 425.892L293.157 425.907L298.852 424.422L301.086 426.536L301.825 429.81L302.015 433.106L301.489 437.058L299.614 444.443L299.649 447.516L300.019 449.55L300.732 451.059L301.478 452.1L302.849 453.665L303.292 454.32L303.469 454.936L303.425 455.813L303.241 456.796L303.155 458.021L303.326 459.115L303.887 460.307L305.982 463.196L307.121 465.351L307.533 466.672L308.179 470.536L308.359 475.599L308.179 481.585L308.321 482.613L308.621 483.501L309.41 485.161L309.651 486.02L309.694 486.855L309.603 487.813L309.638 488.648L309.802 489.338L310.506 490.595L310.7 491.244L310.614 491.909L310.165 492.704L309.249 493.639L307.755 494.757L303.937 496.88L302.942 497.624L302.044 498.501L301.02 500.02L300.807 502.032L294.108 500.315L292.159 498.382L290.423 492.363L289.898 491.139L289.291 490.026L288.278 488.73L287.226 487.977L275.45 483.771L273.7 483.567L272.741 483.618L271.937 483.795L268.828 485.255L268.047 485.49L267.245 485.601L261.448 485.411L255.901 486.187L255.446 486.343L255.041 486.602L253.177 488.056L251.833 488.821L250.434 489.521Z"
              />
              </svg>

  
    