<?xml version="1.0" encoding="UTF-8" standalone="no"?>
  <svg
     width="768"
              height="868"
              viewBox="-216 -95 768 868"
              xmlns="http://www.w3.org/2000/svg">
              <path
              style="fill:#83a99c"
              d="M197.99 131.884L190.666 133.03L187.652 129.886L186.654 129.249L185.213 128.127L184.673 127.266L184.464 126.319L184.635 125.419L184.943 124.478L186.185 121.741L185.844 118.226L189.249 118.83L190.289 118.779L191.624 118.576L192.391 118.092L192.931 117.464L193.239 116.599L193.343 115.637L193.275 114.621L192.529 111.535L193.971 108.883L195.015 108.035L196.553 107.171L198.217 106.773L199.846 106.686L201.232 106.917L202.414 107.443L203.139 107.928L203.885 108.601L203.309 109.631L202.528 110.756L202.043 111.3L201.546 111.733L200.992 112.048L199.81 112.463L199.326 112.832L199.07 113.263L199.006 113.876L199.063 114.472L199.24 114.956L199.808 115.294L200.791 115.534L205.341 116.066L206.608 116.868L206.066 118.898L206.046 119.416L205.762 119.896L205.169 120.159L204.374 120.293L203.819 120.661L203.435 121.248L203.307 122.222L203.421 122.955L203.377 123.596L203.072 124.073L202.245 124.504L201.625 124.964L201.358 125.757L201.599 126.38L202.075 126.857L202.609 127.209L203.646 127.732L203.76 128.182L203.412 128.799L200.887 131.195L200.373 131.563L199.971 131.791L197.99 131.884Z"
              />
              </svg>

  
    