<?xml version="1.0" encoding="UTF-8" standalone="no"?>
  <svg
     width="768"
              height="868"
              viewBox="-216 -95 768 868"
              xmlns="http://www.w3.org/2000/svg">
              <path
              style="fill:#83a99c"
              d="M208.692 117.234L208.781 117.257L210.168 117.83V118.131L209.863 118.024L208.923 117.83V118.131L209.37 118.581L209.534 119.1L209.623 119.635L209.861 120.142L210.338 120.438L211.494 120.495L212.495 120.953L213.061 120.947L213.475 121.133L213.643 122.002L213.546 122.636L213.113 123.282L212.986 123.858H212.703L211.763 122.852L210.947 123.871L211.294 124.459L212.181 124.918L212.987 125.533L213.375 126.667L213.204 127.716L212.626 128.175L211.764 127.545L212.078 128.419L212.712 129.414L213.499 130.321L214.271 130.921L214.55 130.557L215.019 131.334L215.803 133.929L214.851 133.208L214.437 132.776L214.269 132.44L214.023 132.171L213.497 132.375L213.004 132.734L212.847 132.929L212.445 132.997L212.12 133.136L211.724 133.255L211.134 133.263L209.825 132.896L209.232 132.928V133.262L210.374 133.743L211.079 134.221L211.091 134.805L210.165 135.602L209.557 135.94L208.842 136.216L208.084 136.35L207.324 136.266L206.928 135.987L206.279 135.026L205.758 134.625L206.026 135.368L206.071 135.436L205.945 135.398L205.552 135.569L204.6 135.768L204.316 135.868L204.122 136.055L204.01 136.27L203.932 136.556L203.79 136.838L203.491 137.114L203.101 137.296L202.701 137.364L201.542 137.334L201.244 137.402L200.668 137.645L200.36 137.691L199.943 137.266L199.43 136.342L198.62 134.257L197.988 131.881L199.972 131.786L200.375 131.558L200.888 131.19L203.413 128.794L203.761 128.177L203.647 127.727L202.611 127.204L202.076 126.851L201.6 126.374L201.359 125.752L201.626 124.959L202.246 124.499L203.073 124.067L203.379 123.59L203.422 122.949L203.308 122.217L203.436 121.243L203.82 120.656L204.375 120.287L205.17 120.154L205.763 119.89L206.047 119.411L206.067 118.893L206.61 116.863L208.374 117.248L208.692 117.234Z"
              />
              </svg>

  
    