<?xml version="1.0" encoding="UTF-8" standalone="no"?>
  <svg
     width="768"
              height="868"
              viewBox="-216 -95 768 868"
              xmlns="http://www.w3.org/2000/svg">
              <path
              style="fill:#83a99c"
              d="M176.634 150.602L174.389 149.339L172.496 147.773L171.599 146.559L170.12 142.969L169.054 139.278L170.138 136.67L170.488 135.405L170.872 134.772L171.178 134.624L171.469 134.811L171.989 134.948H172.72L175.251 133.881L176.786 134.056L177.79 133.759L178.28 133.443L179.197 132.181L179.793 132.219L180.25 132.432L180.379 132.736L180.3 133.122L180.125 133.583L180.022 134.117L180.102 134.628L180.313 135.106L181.329 136.632L181.599 136.912L182.371 136.986L184.015 136.178L184.61 136.495L184.733 136.898L184.837 138.275L185.13 138.939L186.129 139.781L186.555 140.349L186.761 141.021L187.007 142.433L187.318 143.066L185.944 143.222L185.252 143.158L183.582 143.442L182.915 143.331L182.112 143.437L181.434 143.898L180.695 145.238L180.396 146.209L180.069 146.887L179.506 147.244L179.086 147.273L178.823 147.085L178.524 146.323L178.269 146.146L177.899 146.226L177.438 146.583L176.683 147.959L176.634 150.602Z"
              />
              </svg>

  
    