<?xml version="1.0" encoding="UTF-8" standalone="no"?>
  <svg
     width="768"
              height="868"
              viewBox="-216 -95 768 868"
              xmlns="http://www.w3.org/2000/svg">
              <path
              style="fill:#83a99c"
              d="M169.056 139.278L167.611 137.695L166.872 137.27L166.018 136.914L165.357 136.727L164.723 136.392L164.197 135.883L163.445 134.739L162.998 133.806L162.373 131.736L161.901 130.765L161.126 129.81L157.401 127.242L156.691 126.525L156.292 125.652L156.221 124.864L156.383 124.078L157.395 122.23L157.494 121.694L157.43 121.073L157.202 120.35L156.782 119.547L156.165 118.745L155.331 118.097L154.337 117.563L153.077 117.209L150.276 117.012L147.157 117.535L146.379 116.245L146.1 115.451L146.191 114.41L146.898 112.995L147.066 111.899L146.825 111.181L146.337 110.508L145.973 109.734L146.102 108.711L146.935 107.828L148.015 107.266L148.773 106.419L148.635 104.685L148.764 104.376L149.024 103.766L149.262 103.311L150.175 102.936L151.161 102.809L152.051 103.026L152.582 103.77L152.725 104.539L152.943 105.711L153.211 106.529L153.936 107.875L154.381 108.453L154.928 108.989L155.709 109.59L156.138 109.791L156.611 109.894L163.139 110.236L163.758 110.379L165.529 111.4L166.888 112.522L167.378 112.755L167.995 112.966L167.939 112.164L168.706 110.411L168.784 109.322L168.166 105.195L168.528 101.999L168.428 100.305L169.018 99.8996L169.33 99.8197L169.935 99.7816L171.92 100.247L174.065 101.711L175.24 101.997L176.156 103.942L176.397 105.06L176.347 105.959L175.423 107.225L175.245 107.865L175.095 108.698L175.139 109.66L175.295 110.729L175.614 111.86L176.076 112.769L176.645 113.422L178.139 114.472L178.79 115.034L179.339 115.876L179.491 116.593L179.453 117.289L179.084 118.546L175.806 119.125L175.38 119.371L174.854 119.791L174.461 120.702L174.39 121.082L174.234 121.512L174.07 122.322L174.118 122.669L174.343 122.925L174.769 123.134L175.418 123.678L175.38 124.39L175.048 125.187L174.819 125.985L174.812 126.469L174.856 126.976L174.976 127.457L175.217 127.865L175.593 128.128L176.465 128.359L176.858 128.575L177.251 129.352L177.425 131.274L178.012 131.988L178.449 132.135L179.198 132.182L178.282 133.444L177.792 133.76L176.787 134.058L175.253 133.882L172.722 134.949H171.99L171.47 134.813L171.179 134.625L170.874 134.773L170.49 135.406L170.14 136.671L169.056 139.278Z"
              />
              </svg>

  
    