<?xml version="1.0" encoding="UTF-8" standalone="no"?>
  <svg
     width="768"
              height="868"
              viewBox="-216 -95 768 868"
              xmlns="http://www.w3.org/2000/svg">
              <path
              style="fill:#83a99c"
              d="M171.47 641.944L171.449 641.931L170.576 641.795L171.464 643.123L174.384 646.042L171.179 653.571L171.079 654.134L171.051 654.716L170.909 655.018L170.639 655.227L170.049 655.334L169.382 655.544L163.935 658.865L159.132 660.282L157.506 660.795L154.242 661.349L151.019 661.378L151.063 658.785L150.317 657.772L149.841 657.379L149.614 656.885L149.891 656.029L150.85 654.849L156.14 649.874L156.845 648.783L157.157 647.663L157.263 646.45L157.242 645.469L157.136 644.917L156.823 644.389L155.456 643.104L154.532 642.378L152.417 640.134L157.076 638.493L161.919 637.433L164.766 636.433L165.544 637.113L168.765 639.176L170.218 640.449L170.553 640.821L171.454 641.93L171.47 641.944Z"
              />
              </svg>

  
    