<?xml version="1.0" encoding="UTF-8" standalone="no"?>
  <svg
     width="768"
              height="868"
              viewBox="-216 -95 768 868"
              xmlns="http://www.w3.org/2000/svg">
              <path
              style="fill:#83a99c"
              d="M171.6 146.559L170.001 146.336L168.35 145.497L167.846 145.482L167.276 145.662L165.741 146.552L165.4 146.863L165.333 147.162L165.413 147.59L165.669 148.3L165.859 149.115L165.939 149.959L165.839 150.676L165.463 151.157L164.894 151.376L163.954 151.215L163.102 150.726L160.613 148.673L159.896 148.268L159.29 148.176L158.83 148.217L157.911 149.123L156.702 149.102L155.557 148.803L153.913 148.205L147.195 144.761L142.812 141.711L142.068 140.987L140.595 138.863L140.013 138.389L139.367 138.178L138.328 138.344L136.984 138.898L136.101 138.932L130.256 138.173L129.368 137.848L127.269 136.786L125.846 136.471L125.632 135.03L125.699 132.995L126.054 131.977L126.509 131.465L127.106 131.219L127.845 131.156L131.849 131.368L132.786 131.22L133.663 130.917L134.55 130.399L135.232 129.751L135.438 129.475L136.577 129.293L136.768 128.758L137.111 128.284L137.308 128.209L137.208 127.57L137.017 127.284L133.668 124.972L133.242 124.345L132.892 124.149L129.079 119.897L128.625 118.593L128.082 117.691L127.549 117.013L127.572 116.205L127.543 115.859L127.622 115.1L128.853 113.139L129.378 114.554L129.74 114.946L130.394 115.485L134.967 117.695L138.322 120.573L139.37 121.037L140.344 121.222L141.937 121.121L142.704 121.147L146.607 122.261L147.517 122.312L148.286 122.1L148.293 120.256L148.158 119.029L147.846 118.494L147.512 118.125L147.151 117.531L150.271 117.008L153.072 117.205L154.331 117.559L155.326 118.093L156.16 118.741L156.777 119.543L157.196 120.346L157.424 121.069L157.489 121.69L157.389 122.226L156.377 124.074L156.216 124.86L156.287 125.648L156.685 126.521L157.396 127.238L161.121 129.806L161.895 130.761L162.367 131.732L162.992 133.802L163.439 134.735L164.192 135.879L164.717 136.388L165.352 136.724L166.012 136.91L166.867 137.266L167.606 137.691L169.05 139.274L170.116 142.965L171.6 146.559Z"
              />
              </svg>

  
    