<?xml version="1.0" encoding="UTF-8" standalone="no"?>
  <svg
     width="768"
              height="868"
              viewBox="-216 -95 768 868"
              xmlns="http://www.w3.org/2000/svg">
              <path
              style="fill:#83a99c"
              d="M190.665 133.03L189.568 133.881L189.021 134.165L188.332 134.435L185.907 134.359L185.226 134.455L184.586 134.815L184.043 135.3L184.02 136.18L182.376 136.987L181.604 136.914L181.334 136.633L180.318 135.107L180.107 134.629L180.027 134.118L180.13 133.584L180.305 133.123L180.384 132.738L180.255 132.434L179.798 132.22L179.202 132.182L178.453 132.135L178.015 131.988L177.428 131.274L177.255 129.352L176.862 128.575L176.469 128.359L175.597 128.128L175.221 127.865L174.98 127.457L174.859 126.976L174.816 126.469L174.823 125.985L175.052 125.187L175.384 124.39L175.422 123.678L174.773 123.134L174.347 122.925L174.121 122.669L174.074 122.322L174.238 121.512L174.394 121.082L174.465 120.702L174.858 119.791L175.384 119.371L175.81 119.125L179.088 118.545L179.913 118.23L182.379 118.028L185.843 118.226L186.184 121.741L184.941 124.478L184.633 125.419L184.463 126.319L184.671 127.266L185.211 128.127L186.653 129.249L187.65 129.886L190.665 133.03Z"
              />
              </svg>

  
    