<?xml version="1.0" encoding="UTF-8" standalone="no"?>
  <svg
     width="768"
              height="868"
              viewBox="-216 -95 768 868"
              xmlns="http://www.w3.org/2000/svg">
              <path
              style="fill:#83a99c"
              d="M10.4421 40.8751L12.8355 38.3704L13.1762 37.7111L13.091 37.6141L12.9141 37.2039L12.6441 36.8723L12.2155 36.5905L11.8918 36.2287L11.8734 35.6717L12.188 35.2995L12.6664 35.2536L13.192 35.2837L13.6652 35.1448L14.2287 34.5026L14.5931 33.6886L15.0689 31.9323V31.9257L15.8527 30.9388L17.0008 30.7697L18.2185 31.1773L19.2015 31.9336L19.6839 32.8891L19.8018 33.7909L20.1164 34.3859L21.1518 34.4292L21.49 34.2011L21.701 33.8262L21.9684 33.492L22.4494 33.3793L22.6552 33.5536L23.3393 34.3413L23.6303 34.5956L24.5373 34.9246L26.3658 35.2536L27.3081 35.6442L30.02 37.8894L30.906 38.2616L32.8379 38.7125L33.6834 39.1594L34.2941 39.8777L34.6585 40.7113L34.9403 41.6013L36.5171 44.7338L36.9247 45.2358L37.7032 45.633L39.3966 46.1048L40.8882 47.2019L41.7978 47.5636L42.7193 47.5715L43.4532 47.0564L43.638 46.249L43.4441 45.4521L43.4139 44.7784L44.0601 44.3328L44.7993 44.1991L45.5713 43.8557L47.8965 42.233L48.0669 41.849L48.0197 41.3418L47.4653 40.6471L47.3473 40.2421L47.8847 38.7977L49.1089 37.833L51.8561 36.3755L52.6111 35.7359L52.9597 35.2457L53.7605 33.0254L55.5798 29.8116L56.1263 29.6897L57.1618 30.058L57.7542 30.404L58.289 30.8457L58.7556 31.3608L59.1488 31.9375L59.8002 32.3019L59.9037 32.9953L59.8277 33.8577L59.9182 34.7385L60.2209 35.4371L61.8973 38.242L63.0717 39.5631L63.6353 39.938L64.4689 40.0717L64.9565 39.7768L66.4205 37.5879L66.6355 37.1239L66.5896 36.7334L67.5779 37.5814L68.9842 40.2067L69.325 41.3404L69.498 42.4388L69.3539 43.2619L68.8846 43.8583L68.338 44.4114L67.8767 44.9829L67.8269 45.7286L68.3315 46.4967L69.4849 47.4076L70.4221 47.9149L71.3029 48.1941L72.0866 48.2216L72.8468 48.0735L73.6136 47.8467L74.5743 47.8126L75.6334 48.0892L77.0974 49.101L77.7816 49.9871L78.1302 50.8967L78.066 51.7775L77.7606 52.6884L76.7514 54.623L74.6674 57.1972L74.0894 57.7647L73.4432 58.2169L71.139 58.8985L70.4574 59.3664L69.8965 59.9601L68.937 61.4071L68.5438 62.2119L68.2384 63.0193L67.4835 67.2096L66.1623 68.9161L65.9356 69.7222L65.9421 70.6816L66.6119 74.459L66.317 74.1536L64.1871 70.4614L63.9669 70.2425L63.5685 70.1337L62.7139 69.5872L62.5461 69.3513L62.512 68.3001L62.3888 67.3249L62.1097 66.4821L61.6063 65.8268L60.4765 64.849L60.1633 64.1386L60.0401 62.9407L59.7229 62.1333L58.9509 61.4569L57.9285 61.0559L56.9141 61.0637L56.2351 61.4805L53.602 64.8398L53.4447 65.1151L53.5823 65.4533L53.9178 65.7691L54.2573 66.0313L54.4107 66.1899L53.505 66.4979L49.5139 64.524L47.81 64.6432L45.7771 62.8319L44.4455 61.9498L43.233 61.567L39.183 62.1385L38.3927 62.0782L37.8291 61.1725L37.5604 59.9339L37.1868 58.8343L36.3296 58.3624L34.9875 58.7124L34.3046 58.711L33.9324 58.0308L33.53 57.5773L33.3885 57.3479V55.994L33.0267 54.1747L32.2364 52.4984L31.1589 51.0383L29.3463 49.4274L27.7053 48.3631L25.9372 47.9005L25.1167 47.2792L22.0287 43.756L21.604 42.9015L21.2501 42.7075L20.8254 42.5738L20.1727 42.0469L19.5383 41.0416L18.8673 40.8031L16.5513 41.0416L13.9745 40.4177L12.9416 40.3627L10.4421 40.8751Z"
              />
              </svg>

  
    