<?xml version="1.0" encoding="UTF-8" standalone="no"?>
  <svg
     width="768"
              height="868"
              viewBox="-216 -95 768 868"
              xmlns="http://www.w3.org/2000/svg">
              <path
              style="fill:#83a99c"
              d="M303.481 540.301L302.776 540.995L302.365 541.511L301.995 542.211L301.839 543.033L301.943 543.971L302.158 544.795L302.272 545.814L301.746 550.046L299.733 556.321L299.839 557.738L300.203 558.584L300.649 559.174L301.447 559.978L301.717 560.392L301.902 560.86L301.838 561.569L301.497 562.477L300.531 563.776L298.902 565.186L298.482 565.64L298.341 566.315V566.846L298.945 569.201L298.54 569.846L297.998 571.223L297.628 571.749L297.123 571.951L296.371 571.698L295.056 571.014L294.067 570.897L288.237 571.078L287.285 571.273L286.161 571.822L285.514 572.428L285.145 572.997L284.946 573.741L284.902 574.576L284.978 575.402L285.248 576.142L285.93 577.347L286.045 577.836L285.91 578.334L285.414 578.913L284.524 579.683L283.379 580.498L282.006 581.238L280.606 581.774L278.654 582.078L277.518 582.406L276.566 582.975L275.949 583.679L274.767 585.342L274.113 585.874L273.552 586.056L273.14 585.979L272.949 585.7L272.934 585.4L273.005 585.045L273.076 584.181L273.041 583.491L272.934 582.898L272.629 582.304L271.987 581.81L270.992 581.473L259.36 580.845L258.007 580.631L256.38 580.215L254.793 579.449L252.631 578.659L248.839 576.751L246.854 576.504L246.153 576.537L245.625 576.381L245.27 576.062L245.026 575.42L245.008 574.942L245.111 574.55L245.305 574.289L245.731 573.885L245.866 573.678L245.909 573.424L245.722 573.008L245.263 572.631L244.312 572.295L243.449 572.094L242.938 571.913L242.644 571.535L242.597 571.185L242.64 570.315L242.626 570.006L242.57 569.771L242.463 569.552L242.229 569.408L241.874 569.339L240.592 569.371L238.837 569.095L238.784 568.185L238.609 567.725L238.301 567.104L237.605 566.21L237.555 565.644L237.732 564.946L238.622 563.181L239.252 562.443L239.71 562.001L242.589 560.413L243.975 560.773L244.46 560.802L245.021 560.756L246.015 560.52L246.527 560.284L247.14 559.786L247.709 559.413L248.484 559.177L249.892 558.981L250.518 558.768L253.206 556.964L255.666 554.731L255.943 554.3L256.198 553.608L256.454 553.332L256.865 553.148L257.614 553.02L258.083 553.068L258.417 553.192L258.573 553.42L258.637 553.663L258.716 554.356L258.78 554.646L258.894 554.891L259.032 555.076L259.173 555.222L259.746 555.635L260.061 555.816L260.387 555.876L260.712 555.867L262.28 555.606L262.976 555.397L264.306 555.183L264.768 555.161L265.243 555.262L265.634 555.458L265.91 555.745L266.06 556.118L266.081 556.566L266.038 557.084L266.085 557.675L266.287 558.164L266.621 558.474L267.156 558.557L268.676 558.316L269.181 558.385L269.515 558.586L269.742 558.869L269.915 559.144L270.191 559.397L270.426 559.577L270.909 559.39L271.641 558.811L273.27 557.145L274.165 555.791L274.606 554.475L274.518 553.657L274.773 552.424L274.548 551.592L274.254 551.365L273.835 551.214L273.461 550.968L273.298 550.457L273.118 550.111L272.02 549.003L271.579 548.423L271.442 548.08L271.339 546.897L271.169 546.631L270.878 546.477L270.456 546.126L270.034 545.785L269.857 545.76L269.816 545.635L269.825 544.992L269.913 544.509L270.321 543.443L270.456 542.898H270.767L271.169 543.116L271.645 542.788L272.237 542.278L272.986 541.937L274.866 542.215L275.742 542.067L275.908 541.672L276.384 541.328L276.868 540.957L277.315 540.765L277.978 540.748L279.293 541.051L280.268 541.096L280.708 541.219L281.063 541.404L281.34 541.488L281.631 541.43L281.901 541.129L282.021 540.359L282.15 539.963L282.547 539.533L283.225 539.09L284.596 538.4L285.301 537.882L285.933 537.563L286.529 537.495L288.457 537.833L289.267 537.759L290.044 537.36L292.71 535.073L293.406 534.795L294.152 534.714L295.097 534.958L297.366 535.922L298.176 536.069L299.08 535.932L299.797 535.731L301.746 534.587L302.336 534.806L302.92 536.098L303.481 540.301Z"
              />
              </svg>

  
    