<?xml version="1.0" encoding="UTF-8" standalone="no"?>
  <svg
     width="768"
              height="868"
              viewBox="-216 -95 768 868"
              xmlns="http://www.w3.org/2000/svg">
              <path
              style="fill:#83a99c"
              d="M161.33 596.919L162.016 596.774L163.058 596.292L163.923 595.733L163.935 595.727L165 595.082L166.321 594.702L167.548 594.831L168.318 595.725L169.13 597.149L170.689 599.31L171.015 600.018L171.541 601.642L171.884 602.309L172.501 603.06L173.311 603.584L174.259 603.57L174.685 603.103L175.228 602.181L175.656 601.158L175.724 600.398L177.251 601.647L177.677 602.15L178.529 603.131L179.689 603.971L180.963 604.622L182.178 605.042L184.773 605.299L185.974 605.603L186.995 606.442L185.815 601.958L184.685 599.811L184.451 599.053L184.524 598.95L184.581 597.748L184.481 597.639L184.742 597.163L184.891 596.997L185.701 596.902L186.676 596.935L187.042 597.247L187.511 597.36L188.146 597.397L191.926 596.234L192.276 595.955L192.399 595.604L192.328 595.183L192.319 594.807L192.447 594.506L192.746 594.416L193.352 594.634L193.939 594.985L195.535 596.398L197.041 597.264L198.841 597.96L199.892 598.513L200.726 599.066L201.6 599.914L202.317 600.903L202.913 602.517L203.008 603.701L202.814 604.784L201.947 606.499L201.634 607.282L201.549 607.886L201.989 608.48L202.837 609.105L204.816 610.173L206.853 611.03L207.364 611.396L207.971 612.044L208.441 612.407L209.045 612.505L209.492 612.287L209.918 611.973L210.358 611.738L210.83 611.684L211.441 611.829L212.08 612.19L212.656 612.745L212.949 613.388L212.926 614.231L212.736 615.62L212.726 616.036L212.966 616.455L212.825 617.027L212.477 617.845L211.903 618.189L210.434 618.72L209.68 618.694L209.233 617.871H208.92L209.078 618.562L209.227 618.838L209.514 619.145L209.011 619.256L208.496 619.512L208.108 619.868L207.756 620.815L207.287 621.098L206.675 621.328L206.101 621.719L206.131 620.941L206.004 620.349L205.777 619.878L205.446 619.462L205.535 621.091L205.759 621.747L206.248 622.01L207.072 621.845L206.713 622.397L205.666 622.878L203.698 622.907L202.346 622.752L200.233 622.904L199.593 622.789L199.174 622.47L199.074 622.04L199.224 621.093L199.209 620.659L199.06 620.207L198.613 619.837L197.903 619.541L196.614 619.327L195.811 619.002L195.179 618.575L193.265 615.845L192.673 615.335L192.08 615.02L191.287 614.862L186.494 614.589L185.549 614.698L184.701 615.168L183.877 616.26L183.401 616.624L182.461 616.841L181.196 616.859L178.971 616.497L177.157 616.396L175.338 615.763L172.728 613.858L162.986 604.626L160.098 601.175L159.409 600.488L158.17 599.71L157.673 599.311L157.339 598.952L157.204 598.699L157.076 598.091L157.035 597.84L161.33 596.919Z"
              />
              </svg>

  
    