<?xml version="1.0" encoding="UTF-8" standalone="no"?>
  <svg
     width="768"
              height="868"
              viewBox="-216 -95 768 868"
              xmlns="http://www.w3.org/2000/svg">
              <path
              style="fill:#83a99c"
              d="M184.118 165.42H183.779L183.637 166.202L182.944 168.318L182.697 168.75L182.026 168.58L181.288 168.151L180.662 167.607L180.439 167.251L180.44 167.234L180.455 167.039L181.577 166.184L181.826 165.938L182.005 165.687L182.105 165.399L182.091 165.038L181.962 164.565L181.619 164.104L181.157 163.772L180.418 163.614L178.86 163.468L178.071 163.23L177.24 162.732L176.327 162.009L175.156 161.244L172.54 160.489L170.597 159.45L167.639 157.449L157.911 149.12L158.83 148.214L159.29 148.174L159.897 148.265L160.614 148.67L163.103 150.723L163.954 151.212L164.894 151.373L165.463 151.154L165.839 150.673L165.939 149.956L165.859 149.112L165.669 148.297L165.413 147.588L165.333 147.159L165.4 146.86L165.741 146.55L167.276 145.66L167.846 145.479L168.351 145.495L170.001 146.334L171.6 146.556L172.498 147.77L174.39 149.336L176.635 150.6L176.773 151.904L177.213 153.246L177.824 153.794L178.485 154.017L179.785 154.154L180.207 154.382L181.088 155.272L181.499 155.345L181.925 155.211L182.304 154.966L182.645 154.799L182.936 154.719L183.177 154.721L183.354 154.831L183.553 155.038L183.794 155.375L184.029 155.578L184.306 155.693L185.025 155.764L185.395 155.835L185.715 156.039L185.978 156.422L186.177 157.059L186.283 157.775L186.31 158.565L185.857 160.86L184.118 165.42Z"
              />
              </svg>

  
    