<?xml version="1.0" encoding="UTF-8" standalone="no"?>
  <svg
     width="768"
              height="868"
              viewBox="-216 -95 768 868"
              xmlns="http://www.w3.org/2000/svg">
              <path
              style="fill:#83a99c"
              d="M327.214 468.949L327.303 469.288V470.591L327.412 471.522L327.695 472.527L328.136 473.333L328.714 473.665L328.748 473.872L329.296 474.298L329.904 474.649L330.12 474.629L330.277 475.068L330.259 475.379L330.013 475.553L329.493 475.595V475.918L329.695 476.116L329.766 476.26L329.833 476.881L329.441 476.472L328.423 474.679L327.942 473.52L326.711 472.093L326.364 471.383H326.028L325.979 472.144L326.23 472.48L326.622 472.675L326.991 473.018L327.219 473.531L327.406 474.467L327.592 474.952L328.188 475.493L328.606 475.733L328.558 476.013L328.378 476.24L328.218 476.207L328.535 476.713L329.493 477.876H329.833L330.009 477.618L330.18 477.485L330.75 477.232L330.593 477.692L330.201 478.239L330.12 478.653L330.269 479.259L330.657 479.648L331.165 479.734L331.686 479.454L331.917 479.937L331.533 480.568L331.686 481.095L331.242 481.97L330.947 482.373L330.436 482.7L330.06 482.198L329.068 482.003L328.87 481.559L329.094 481.235L329.575 481.033L330.015 480.74L330.12 480.13L329.843 479.81L328.382 478.813L327.942 478.843L327.584 479.008L327.281 479.405L326.99 480.13L327.236 480.516L327.125 480.884L327.103 481.274L327.592 481.738L327.238 482.075L327.081 482.547L326.991 483.344L327.778 483.741L328.558 484.82L329.184 485.246L329.687 484.76L330.068 484.685L330.437 485.246L330.504 485.778L330.359 486.134L330.009 486.305L329.493 486.268V486.558L329.722 486.77L329.837 487.04L329.875 487.387L329.834 487.845L329.61 487.675L329.095 487.406L328.871 487.229L328.659 487.643L328.558 487.672L328.218 487.845L328.845 489.46L329.251 490.132L329.833 490.766L329.766 489.293L329.926 488.724L330.437 488.488V488.195L330.235 487.833L330.269 487.58L330.463 487.551L330.75 487.845L330.93 488.253L331.019 488.693L331.064 489.659L330.963 490.017L330.437 491.088L330.448 491.558L330.749 492.533L330.638 493.297L330.417 494.021L330.29 494.76L330.436 495.587L330.812 496.227L331.259 496.818L331.536 497.444L331.398 497.864L331.984 498.243L332.364 498.635L333.311 500.35L334.528 501.717L335.43 503.176L337.35 505.419L337.659 505.923L337.764 506.659L337.719 507.538L337.563 508.33L337.347 508.812L337.139 508.904L336.326 509.141L336.098 509.129L335.983 508.8L336.221 508.579L336.549 508.399L336.721 508.199L336.826 508.006L336.975 507.809L336.926 507.647L336.434 507.556L335.472 508.199L335.326 508.441L335.043 509.175L334.841 509.454L334.465 509.609L334.065 509.633L333.976 509.654L333.41 509.201L332.899 508.947L332.053 508.754L331.113 508.744L329.053 508.944L327.16 508.838L326.221 508.882L325.319 509.051L324.382 509.407L323.451 509.944L322.418 510.882L321.097 512.528L320.413 513.081L319.738 513.407L318.062 513.474L314.917 512.173L311.128 511.292L310.01 510.921L307.997 509.917L305.34 508.224L304.4 507.473L303.769 506.753L300.81 502.023L301.024 500.011L302.048 498.492L302.945 497.615L303.94 496.87L307.758 494.748L309.252 493.63L310.169 492.694L310.618 491.9L310.703 491.234L310.509 490.586L309.806 489.329L309.642 488.639L309.606 487.804L309.698 486.846L309.655 486.011L309.414 485.151L308.625 483.492L308.324 482.603L308.183 481.576L308.363 475.59L312.216 476.518L313.768 476.521L315.338 476.295L319.207 474.804L320.053 474.197L322.947 470.805L323.83 470.131L326.04 469.59L327.101 469.01L327.214 468.949Z"
              />
              </svg>

  
    