<?xml version="1.0" encoding="UTF-8" standalone="no"?>
  <svg
     width="768"
              height="868"
              viewBox="-216 -95 768 868"
              xmlns="http://www.w3.org/2000/svg">
              <path
              style="fill:#83a99c"
              d="M251.11 388.247L250.963 387.857L250.159 387.642L248.191 387.944L247.334 387.439L247.138 386.59L247.161 385.468L247.038 384.522L246.41 384.197L246.079 384.383L245.815 384.381L245.616 384.194L245.474 383.831L245.223 383.253L244.997 383.202L244.768 383.374L244.5 383.455L243.588 383.222L243.259 383.231L242.798 383.569L242.51 383.995L242.187 384.184L241.623 383.826L239.199 379.418L238.609 378.894L236.862 377.993L236.098 377.402L235.657 376.735L235.449 375.983L235.24 374.009L235.041 373.322L234.565 372.812L232.044 371.326L231.518 370.624L231.582 369.632L232.73 367.048L233.235 366.531L233.801 366.403L234.27 366.543L234.694 366.75L235.113 366.821L235.5 366.715L238.681 364.637L239.5 364.317L241.247 364.009L241.911 363.687L242.603 362.889L243.858 360.613L244.531 360.025L245.082 359.355L245.029 358.929L244.715 358.549L244.504 358.005L244.558 357.187L245.801 357.006L247.927 356.974L251.112 357.242L252.066 357.152L252.776 356.794L254.062 355.854L255.052 355.474L255.727 355.626L256.223 356.147L257.192 358.194L257.774 359.03L258.15 359.164L258.526 358.991L259.421 357.794L260.646 356.448L261.477 355.815L262.352 355.423L262.977 355.378L263.937 355.655L267.494 356.05L269.997 355.545L270.566 355.544L270.843 355.73L270.935 357.261L270.991 357.639L271.09 358.016L271.097 358.287L271.041 358.607L271.024 359.047L271.253 359.704L272.07 360.486L273.059 360.879L274.245 361.011L275.171 360.936L278.924 359.966L279.306 359.94L283.433 360.313L283.459 360.309L283.981 361.283L284.541 361.97L286.958 363.867L287.673 364.207L288.312 364.678L288.677 365.513L288.178 365.606L287.804 365.829L287.715 366.055L288.051 366.164L288.32 366.003L288.641 365.683L288.976 365.439L289.308 365.513L289.532 366.152L289.957 369.091L291.389 371.887L298.875 382.25L300.139 382.982L301.843 382.796L301.433 384.144L301.124 384.465L300.598 383.8L300.061 383.969L299.367 384.282L298.979 384.842L299.345 385.747L300.426 386.552L301.158 386.122L302.187 384.096H302.47L302.724 385.071L302.784 386.249L303.039 386.603L304.136 387.543L304.382 387.856L304.598 388.047L305.427 388.559L305.313 388.589L304.223 388.785L302.289 388.936L301.045 389.186L295.001 391.386L292.78 391.948L288.216 392.39L287.546 392.541L286.935 392.87L286.36 393.362L285.941 393.864L285.344 395.189L284.866 395.934L283.707 397.309L283.302 398.049L283.182 398.933L283.373 399.793L283.998 400.755L285.272 402.122L285.464 402.809L285.49 403.286L284.116 405.104L282.681 404.941L280.436 404.271L279.825 404.354L279.499 404.717L279.531 405.368L279.716 406.524L279.626 407.237L279.233 407.995L278.231 409.009L277.518 409.393L276.872 409.452L276.382 409.138L275.927 408.594L275.345 407.26L274.961 406.637L273.964 405.554L273.708 404.913L273.679 404.072L273.914 402.409L273.928 401.633L273.743 400.976L273.388 400.435L270.807 398.158L269.258 397.129L268.169 396.647L267.279 396.466L266.512 396.547L265.039 396.878L264.211 396.849L263.676 396.576L263.086 396.03L261.904 394.638L261.237 393.997L260.292 393.33L259.56 393.162L258.13 393.14L257.766 392.914L257.534 392.475L257.406 391.825L257.229 391.167L256.856 390.463L256.288 389.758L254.476 388.442L253.678 388.172L252.314 387.91L251.11 388.247Z"
              />
              </svg>

  
    