<?xml version="1.0" encoding="UTF-8" standalone="no"?>
  <svg
     width="768"
              height="868"
              viewBox="-216 -95 768 868"
              xmlns="http://www.w3.org/2000/svg">
              <path
              style="fill:#83a99c"
              d="M115.359 135.64L115.41 135.45L114.747 134.761L112.141 133.87L109.778 132.726L109.015 131.936L108.58 130.396L107.96 129.711L107.023 129.605L105.976 129.633L105.048 129.348L104.71 128.987L104.327 128.137L104.081 127.775L103.731 127.532L103.014 127.258L102.632 126.994L102.031 126.267L101.297 124.76L100.75 124.014L100.412 123.723L100.003 123.438L99.5509 123.21L99.1368 123.075L98.7029 123.108L97.6701 123.4L97.3503 123.416L97.1891 123.17L96.7106 122.158L96.4433 121.775L96.1025 121.559L94.797 121.075L94.3095 121.002L93.2701 120.981L92.8362 120.907L92.4522 120.717L91.7602 120.194L91.4456 120.021L89.8138 120.138L87.701 122.628L86.0246 122.91L85.4898 122.892L85.0259 123.011L84.107 123.427L80.7373 124.517L80.365 124.753L79.69 125.366L79.2798 125.592L78.8158 125.63L77.8878 125.5L77.3793 125.674L76.931 126.217L76.4552 127.132L76.0699 128.125L75.8995 128.916L75.9991 129.918L76.1551 130.392L75.9703 130.726L75.0436 131.313L74.4774 131.514L74.0842 131.566L73.7998 131.759L73.5769 132.402L73.6333 132.866L74.0973 133.818L74.1209 134.215L73.8561 134.457L73.3594 134.713L72.801 134.903L72.3842 134.958L71.8822 134.872L71.6882 134.75L71.5414 134.554L70.5374 133.668L68.7654 131.731L67.8754 131.215L65.043 130.604L65.0404 130.596L64.5764 130.574L64.1806 130.457L63.8162 130.254L63.461 129.988L62.9682 129.352L62.1293 127.714L61.5723 127.154L60.9379 126.91L60.6968 127.038L60.5565 127.347L60.2341 127.651L59.3009 128.183L59.2196 128.205L58.0597 128.532L57.8093 128.526L57.3217 128.461L56.0451 128.03L53.4591 126.631L52.7133 126.419L52.3018 126.459L51.7382 126.63V126.614L51.7356 126.465L51.6648 125.104L51.8496 123.489L52.4079 121.653L52.5731 119.913L52.7789 119.221L53.1904 118.658L54.1735 118.05L54.5706 117.572L54.7462 116.891L54.6912 115.984L54.5273 115.22L54.471 114.675L54.5706 114.286L54.9048 114.033L55.3806 113.987L55.9769 114.139L56.5589 114.492L57.213 115.015L57.9679 115.371L58.7936 115.535L59.7033 115.541L60.4988 115.417L61.1385 115.094L61.4465 114.537L61.3665 113.544L60.6994 111.713L60.5709 110.947L60.6941 110.249L61.5657 108.3L61.8803 106.901L62.0009 105.017L61.8449 103.888L61.5041 103.123L59.8042 101.782L59.4909 101.284L59.3992 100.74L59.5486 100.067L59.4136 99.568L59.1292 99.3072L58.795 99.0726L58.6298 98.6794L58.7006 98.1485L59.0702 97.5273L59.5774 97.0974L61.3534 96.3123L61.803 95.8666L62.1936 95.2349L62.4282 94.1247L62.7546 93.2793L63.4217 92.3264L65.4965 90.5164L66.4153 89.3485L67.1205 88.0785L67.4468 86.5148L67.4757 84.9512L66.9121 81.027L66.6093 74.4433L65.9395 70.6659L65.933 69.7065L66.1597 68.9004L67.4809 67.1939L69.1337 66.7797L69.7235 67.0523L70.4837 67.6605L71.0801 68.658L73.0854 74.0711L73.9688 75.7121L79.6428 82.0401L80.6376 82.8855L81.618 83.2158L82.4451 83.0729L83.7886 82.6915L87.9631 84.3981L94.9936 85.6747L96.5521 85.6026L97.847 85.1596L99.6021 83.6916L100.412 83.2722L101.288 83.1883L102.183 83.6719L102.896 84.4151L103.244 85.0953L103.23 85.9539L102.264 88.6106L101.771 90.3879L101.501 92.2779L101.463 93.7433L101.707 95.0802L102.264 96.2716L103.579 97.64L107.644 100.027L108.739 100.303L109.707 100.133L112.793 98.2246L113.896 97.796L114.877 97.7842L115.862 98.1551L117.125 98.9166L118.084 99.3006L118.861 99.3622L120.253 98.8917L120.923 98.8864L121.484 99.2272L121.945 99.9586L122.322 100.763L122.927 101.652L123.666 101.998L124.327 102.094L125.179 101.91L126.887 105.815L127.342 108.069L127.157 110.789L127.247 111.347L127.456 111.743L128.233 112.368L128.851 113.126L127.621 115.087L127.542 115.846L127.571 116.192L127.547 117L128.081 117.678L128.623 118.58L129.078 119.884L132.891 124.136L133.241 124.332L133.667 124.959L137.016 127.271L137.207 127.557L137.307 128.196L137.11 128.271L136.767 128.745L136.575 129.28L135.436 129.462L135.231 129.738L134.549 130.386L133.662 130.904L132.785 131.207L131.848 131.355L127.844 131.143L127.104 131.206L126.508 131.452L126.053 131.964L125.698 132.981L125.631 135.017L125.845 136.457L124.339 138.185L123.657 138.578L122.791 138.941L122.036 138.983L121.311 138.813L120.565 138.435L118.927 137.202L118.219 136.533L116.69 135.645L115.359 135.64Z"
              />
              </svg>

  
    