<?xml version="1.0" encoding="UTF-8" standalone="no"?>
  <svg
     width="768"
              height="868"
              viewBox="-216 -95 768 868"
              xmlns="http://www.w3.org/2000/svg">
              <path
              style="fill:#83a99c"
              d="M206.074 135.439L206.338 135.845L207.021 136.634L207.256 136.815L207.468 136.805L207.614 136.912L207.67 137.438L207.625 137.721L207.502 137.988L207.345 138.195L206.585 138.488L205.566 139.43L202.634 140.615L203.44 141.071L204.105 141.033L205.447 140.311V140.615L204.887 141.401L205.215 142.095L205.655 142.813L205.447 143.683L205.164 143.738L203.866 144.204L203.733 144.318L203.478 144.475L203.151 144.849L202.849 145.298L202.637 145.685H202.92L203.532 145.248L204.613 144.817L205.646 144.682L206.105 145.154L205.937 147.279L205.642 148.399L205.135 149.052L204.904 148.583L204.83 148.356L204.844 148.543L204.796 148.663L204.688 148.71L204.516 148.688L205.345 149.517L205.442 149.944L205.624 150.542L205.703 151.309L205.839 152.238L206.028 153.6L205.527 154.149L204.515 153.057L204.075 152.449L203.478 151.952L202.777 151.741L201.987 151.996H201.696L201.92 152.373L201.844 152.418L201.448 152.871L201.198 153.061L200.921 153.174L200.637 153.221L200.047 153.216L199.736 153.156L199.502 153.022L197.65 151.6L196.966 150.787L196.582 150.42L195.135 149.682L194.884 149.247L194.2 149.191L193.674 149.431L192.729 150.374L192.233 150.728L191.626 150.955L191.136 150.859L190.98 150.247L191.167 149.622L191.47 149.104L191.704 148.566L191.683 147.878L191.349 147.214L190.864 146.98L189.594 147.041L188.939 146.847L188.686 146.322L188.691 145.624L188.871 144.517L188.854 144.16L188.713 143.851L188.42 143.595L188.126 143.474L187.838 143.392L187.563 143.282L187.325 143.07L187.015 142.437L186.768 141.025L186.563 140.353L186.137 139.785L185.138 138.943L184.844 138.279L184.741 136.902L184.617 136.499L184.022 136.182L184.046 135.303L184.589 134.818L185.228 134.457L185.91 134.362L188.335 134.438L189.024 134.168L189.571 133.883L190.668 133.033L197.992 131.887L198.624 134.263L199.434 136.349L199.947 137.273L200.364 137.697L200.672 137.651L201.248 137.409L201.546 137.341L202.705 137.371L203.105 137.303L203.495 137.121L203.794 136.844L203.936 136.562L204.014 136.277L204.126 136.062L204.32 135.874L204.604 135.775L205.556 135.575L205.949 135.405L206.074 135.439Z"
              />
              </svg>

  
    