<?xml version="1.0" encoding="UTF-8" standalone="no"?>
  <svg
     width="768"
              height="868"
              viewBox="-216 -95 768 868"
              xmlns="http://www.w3.org/2000/svg">
              <path
              style="fill:#83a99c"
              d="M159.519 91.3736L158.486 90.7222L158.052 90.2293L157.655 89.6566L156.98 88.2331L156.795 86.8569L156.781 85.0652L157.532 75.4447L158.237 73.2008L158.592 71.2898L159.824 70.9897L160.904 69.35L161.771 68.346L162.604 67.8978L164.375 67.342L165.114 67.2241L165.91 67.3617L166.72 67.8846L167.51 68.6134L168.112 69.329L168.462 69.9569L168.59 70.5571L168.611 71.0565L168.69 71.5782L168.846 72.0736L168.952 72.5756L168.946 73.21L168.782 73.9191L168.738 74.6924L168.973 75.8772L169.029 76.8694L169.109 77.3688L169.479 78.3938L169.593 78.9115L169.735 79.344L170.019 79.7228L170.331 79.7608L170.651 79.5275L170.914 79.0622L171.17 78.5262L171.496 78.0373L172.016 77.7699L172.684 77.6637L173.5 77.6244L174.255 77.4566L174.994 77.0254L177.164 75.1957L177.867 74.813L178.933 74.404L179.224 74.1327L179.735 73.1956L180.064 72.7408L180.512 72.4157L181.202 72.1352L181.721 71.86L184.089 71.4235L184.26 73.8929L184.586 75.1983L185.121 76.471L185.211 77.0778L185.206 78.1434L185.37 78.4724L185.652 78.6389L186.03 78.6861L186.57 78.9495L187.176 79.4568L190.475 83.9118L190.628 84.4151L190.552 84.7926L189.442 85.7743L188.405 87.0601L186.542 90.0419L186.257 88.4717L185.981 88.0588L185.455 87.5673L184.686 87.334L181.92 86.9775L181.174 86.9906L180.769 87.2003L180.641 87.6053L180.697 88.1689L182.161 93.3999L182.176 94.4144L181.944 95.4302L181.224 96.7789L180.493 97.4919L179.733 97.8471L178.978 97.8772L178.438 97.7855L177.968 97.8117L177.542 98.0188L175.238 101.991L174.064 101.706L171.918 100.242L169.934 99.7764L169.328 99.8144L169.016 99.8944L168.426 100.299L168.065 99.1945L167.681 98.4303L166.956 97.5889L162.192 94.0749L159.519 91.3736Z"
              />
              </svg>

  
    