<?xml version="1.0" encoding="UTF-8" standalone="no"?>
  <svg
     width="768"
              height="868"
              viewBox="-216 -95 768 868"
              xmlns="http://www.w3.org/2000/svg">
              <path
              style="fill:#83a99c"
              d="M230.93 351.016L230.808 350.853L230.54 350.243L230.053 347.683L229.66 347.069L228.781 346.42L227.933 345.993L227.813 345.955V345.94L227.798 345.632L227.569 343.418L227.856 342.791L228.432 341.956L230.459 340.143L232.117 338.164L232.352 337.68L232.345 337.337L232.075 337.09L231.194 336.476L230.683 335.962L230.155 335.196L229.771 334.305L229.665 333.414L229.953 332.89L230.637 332.42L232.678 331.781L237.017 331.178L237.891 330.882L238.866 330.249L240.209 328.95L243.359 324.444L243.563 324.006L247.513 326.925L252.409 331.389L253.812 331.794V332.15L252.015 331.637L246.406 328.642L245.018 328.887L248.52 330.875L249.628 331.156L250.131 331.344L250.546 332.01L251.03 332.139L251.564 332.059L251.934 331.794L252.269 332.304L252.706 332.652L253.813 333.131V333.487L253.32 333.234L253.187 333.131H252.865L252.768 333.292L252.694 333.448L252.582 333.814L253.253 333.841L253.88 333.772L255.088 333.487L254.809 333.791L254.607 334.114L254.476 334.487L254.44 334.941L254.607 334.892L254.939 335.338L255.189 335.877L255.088 336.098L255.535 336.097L255.77 335.9L255.938 335.596L256.168 335.267L256.645 335.005L256.922 335.278L257.108 335.748L257.302 336.098L259.048 337.292L259.473 337.73L260.524 339.427L261.359 339.994L262.351 341.341L263.246 341.711L263.141 341.851L262.895 341.977L262.593 342.002L262.298 341.865L262.011 341.644L261.676 341.439L261.203 341.348L261.106 341.735L261.688 344.433L261.922 344.889L262.464 345.287L263.567 345.915H263.88L264.295 345.624L264.687 345.716L264.978 346.066L265.127 346.567L265.549 346.276L265.784 346.567L267.461 345.261L267.663 344.943L267.362 343.446L267.317 342.978L268.014 342.805L270.088 344.336L271.076 344.61L271.468 344.316L271.68 343.877L271.949 343.479L272.497 343.304L272.535 343.614L272.979 345.261L273.359 346.08L274.859 348.55L273.549 347.562L272.911 347.328L272.639 348.031L273 348.575L273.825 348.91L274.682 349.01L275.171 348.846H275.484L276.316 349.22L277.458 349.482L278.719 349.589L279.893 349.496L279.699 349.741L279.657 349.753L276.611 350.218L274.386 349.934L272.446 349.296L271.548 349.191L269.275 349.31L268.377 349.535L267.603 350.184L266.898 351.271L265.299 354.469L263.939 355.655L262.98 355.378L262.355 355.423L261.479 355.815L260.648 356.448L259.424 357.794L258.529 358.991L258.153 359.164L257.777 359.03L257.195 358.194L256.226 356.147L255.729 355.626L255.054 355.474L254.065 355.854L252.779 356.794L252.069 357.152L251.114 357.242L247.929 356.974L245.803 357.006L244.561 357.187L244.566 357.097L244.668 356.55L244.457 356.318L243.562 356.347L241.014 357.005L239.684 357.158L238.405 356.772L237.348 355.825L235.648 353.642L234.457 352.838L233.74 352.631L233.1 352.525L232.48 352.349L231.779 351.913L231.213 351.39L230.93 351.016Z"
              />
              </svg>

  
    