<?xml version="1.0" encoding="UTF-8" standalone="no"?>
  <svg
     width="768"
              height="868"
              viewBox="-216 -95 768 868"
              xmlns="http://www.w3.org/2000/svg">
              <path
              style="fill:#83a99c"
              d="M190.165 638.56L191.85 639.807L192.252 640.208L192.536 640.617L192.924 641.389L193.192 641.794L195.534 644.02L195.795 644.169L196.694 645.292L200.674 648.595L201.83 649.886L202.636 651.384L203.046 653.227L203.519 653.739L204.671 653.923L205.219 654.302L205.443 655.172L205.477 656.133L205.247 658.506L204.68 660.1L203.789 661.462L202.637 662.491L201.661 663.09L201.094 663.223L200.573 662.997L200.155 662.868L199.678 663.065L199.014 663.5L197.123 663.458L196.519 663.168L194.326 661.476L190.347 659.316L181.84 651.269L178.718 647.348L178.727 647.343L181.716 645.601L183.31 644.984L184.662 644.836L184.952 644.684L185.167 644.474L185.222 644.262L185.21 644.027L185.008 643.391L184.932 643.056L184.903 642.767L185.017 642.457L185.352 642.138L186.989 641.482L187.476 641.142L187.72 640.719L187.897 640.225L188.295 639.563L188.736 639.141L189.673 638.711L190.165 638.56Z"
              />
              </svg>

  
    