<?xml version="1.0" encoding="UTF-8" standalone="no"?>
  <svg
     width="768"
              height="868"
              viewBox="-216 -95 768 868"
              xmlns="http://www.w3.org/2000/svg">
              <path
              style="fill:#83a99c"
              d="M138.165 83.4806L137.522 82.8357L137.19 82.2262L136.963 81.2039L137.113 80.4044L137.632 78.9797L137.326 78.0228L136.545 76.8917L133.502 73.5062L132.903 72.6189L132.967 70.1364L132.711 69.3225L132.25 68.498L131.305 67.5596L129.399 66.2489L127.72 64.4428L126.094 60.4438L127.958 58.4857L129.804 55.6021L130.046 55.0123L130.216 54.4238L130.249 53.796L130.237 53.1184L130.301 52.4119L130.557 51.8064L131.091 51.366L131.951 51.2585L132.683 51.3896L134.004 51.9086L134.511 51.9283L134.916 51.7395L135.286 51.1943L136.069 47.9438L136.396 47.0092L136.836 46.1009L137.433 45.1926L138.763 43.6526L139.247 42.8321L140.369 39.7441L140.589 38.8987L140.852 37.3193L141.274 36.8933L142.055 36.7714L143.817 37.2118L148.79 39.094L151.684 39.3089L155.978 40.0927L159.059 39.5278L159.898 40.8713L160.388 41.9355L160.864 43.2292L161.034 44.5084L160.969 45.5937L160.558 46.7445L160.025 47.603L158.381 49.5559L156.868 52.0226L156.368 53.0987L155.949 54.2561L155.714 55.5759L155.438 61.2289L155.729 63.8582L155.989 65.0326L156.397 66.0982L158.055 69.0551L158.595 71.2898L158.24 73.2008L157.535 75.4447L156.784 85.0652L156.798 86.8569L156.983 88.2331L157.658 89.6566L158.055 90.2293L158.489 90.7221L159.522 91.3736L158.482 92.1364L157.736 92.523L155.476 93.3881L154.145 93.6712L151.061 93.7512L147.594 92.835L145.818 90.1101L143.734 87.6813L141.105 85.3077L138.165 83.4806Z"
              />
              </svg>

  
    