<?xml version="1.0" encoding="UTF-8" standalone="no"?>
  <svg
     width="768"
              height="868"
              viewBox="-216 -95 768 868"
              xmlns="http://www.w3.org/2000/svg">
              <path
              style="fill:#83a99c"
              d="M178.714 647.35L177.519 645.848L175.795 644.241L174.475 643.26L172.891 642.847L171.471 641.944L171.458 641.929L170.556 640.82L170.222 640.448L168.769 639.175L165.548 637.112L164.77 636.432L165.522 635.504L165.451 634.861L165.323 634.395L165.487 634.041L165.877 633.695L166.386 633.526L166.85 633.631L168.252 634.585L169.356 635.108L170.577 635.505L172.013 635.717L172.817 635.616L173.435 635.353L174.333 634.715L174.721 634.168L174.958 633.439L175.014 632.644L174.958 632.207L174.802 631.853L174.565 631.607L174.304 631.397L174.015 631.249L173.592 631.115L173.507 631.043L173.464 630.932L173.179 629.733L171.952 628.134L174.19 628.653L176.805 628.735L178.164 628.937L182.218 630.034L183.488 630.57L184.287 631.081L184.063 631.26L184.272 631.494L184.712 631.701L185.059 631.918L186.108 633.071L186.481 633.736L186.795 635.298L187.219 635.973L187.734 636.568L188.731 637.497L190.166 638.56L189.67 638.715L188.733 639.145L188.293 639.567L187.894 640.229L187.717 640.723L187.474 641.146L186.986 641.486L185.349 642.142L185.015 642.461L184.901 642.771L184.93 643.06L185.006 643.395L185.207 644.031L185.219 644.266L185.164 644.478L184.949 644.688L184.66 644.84L183.307 644.988L181.713 645.605L178.725 647.347L178.714 647.35Z"
              />
              </svg>

  
    