<?xml version="1.0" encoding="UTF-8" standalone="no"?>
  <svg
     width="768"
              height="868"
              viewBox="-216 -95 768 868"
              xmlns="http://www.w3.org/2000/svg">
              <path
              style="fill:#83a99c"
              d="M152.722 104.536L153.033 104.348L153.493 104.072L153.739 103.802L154.023 103.359L154.009 102.801L153.739 102.2L152.251 100.343L151.413 98.5522L151.015 98.0253L150.238 97.6754L149.731 97.619L149.179 97.1498L148.794 96.7487L147.591 92.8363L151.057 93.7525L154.141 93.6725L155.472 93.3894L157.733 92.5244L158.479 92.1377L159.518 91.3749L162.192 94.0788L166.956 97.5928L167.681 98.4343L168.065 99.1984L168.427 100.303L168.526 101.998L168.165 105.194L168.783 109.321L168.705 110.41L167.938 112.162L167.994 112.965L167.377 112.754L166.887 112.52L165.527 111.398L163.757 110.377L163.138 110.234L156.609 109.892L156.136 109.79L155.708 109.588L154.927 108.988L154.38 108.452L153.934 107.874L153.21 106.528L152.942 105.71L152.722 104.536Z"
              />
              </svg>

  
    