<?xml version="1.0" encoding="UTF-8" standalone="no"?>
  <svg
     width="768"
              height="868"
              viewBox="-216 -95 768 868"
              xmlns="http://www.w3.org/2000/svg">
              <path
              style="fill:#83a99c"
              d="M232.582 620.53L233.985 621.766L234.377 622.347L234.12 622.228L233.993 622.193L233.896 622.148L233.728 622H233.415L233.303 622.578L232.972 622.82L232.632 623.021L232.3 623.954L231.882 624.216L230.909 624.542L230.271 625.128L229.309 626.561L228.693 627.118L228.079 624.815L228.336 623.958L230.193 623.478L231.557 622.766L231.848 622.49L231.882 622.009L232.006 621.414L232.226 620.867L232.582 620.53ZM224.814 613.058L224.81 613.421L225.377 613.694L225.847 614.036L225.738 614.796L225.22 615.951L225.358 616.291L225.675 616.542L225.929 616.818L225.873 617.225L225.571 617.298L225.147 617.061L224.599 616.586L224.934 616.268L224.308 615.602V615.312L224.532 614.906L224.617 614.345L224.599 613.055L224.814 613.058ZM225.625 618.326L225.873 618.179L226.198 617.67L226.265 617.208L226.16 613.869L226.026 613.573L225.422 612.924L225.22 612.451L225.37 612.563L225.873 612.77L225.858 612.573L225.873 612.57L226.172 612.523L226.556 612.501L230.046 611.18L230.813 610.709L231.277 610.195L231.367 609.742L231.405 609.298L231.376 608.845L231.397 608.539L231.618 608.262L235.741 606.316L236.358 606.11L236.913 606.081L237.576 606.342L237.931 606.801L238.095 607.359L237.967 607.966L237.96 608.611L238.066 609.193L238.452 609.721L239.027 610.142L239.667 610.359L240.391 610.312L241.119 609.958L244.103 606.267L245.136 605.217L245.681 604.82L246.354 604.835L246.818 604.964L248.371 606.94L251.236 613.544L251.575 615.453L251.303 615.605L250.84 615.978L249.636 617.192L249.401 617.687L249.009 618.277L248.132 618.803L245.204 620.123L244.38 620.351L242.321 620.613L240.504 621.191L240.007 621.045L239.635 621.563L238.289 622.808L237.159 624.542L236.353 624.524L234.607 623.467L233.411 623.298L233.631 622.886L234.003 622.737L234.395 622.637L234.664 622.347L234.637 621.934L234.407 621.511L234.108 621.179L233.88 621.044L233.66 620.883L232.757 619.931L232.54 619.977L232.067 619.976L231.542 619.909L231.192 619.773V620.436H230.905L230.319 619.803L229.405 619.349L228.443 619.272L227.724 619.773H227.436L227.566 619.366L227.592 619.111L227.435 618.499L227.007 619.419L226.675 619.822L226.156 620.09L225.895 619.203L225.869 618.817L225.625 618.326Z"
              />
              </svg>

  
    