<?xml version="1.0" encoding="UTF-8" standalone="no"?>
  <svg
     width="768"
              height="868"
              viewBox="-216 -95 768 868"
              xmlns="http://www.w3.org/2000/svg">
              <path
              style="fill:#83a99c"
              d="M126.091 60.4438L127.718 64.4427L129.397 66.2489L131.302 67.5596L132.248 68.498L132.709 69.3224L132.964 70.1364L132.9 72.6188L133.499 73.5062L136.543 76.8917L137.324 78.0228L137.629 78.9796L137.11 80.4043L136.961 81.2039L137.188 82.2262L137.519 82.8357L138.163 83.4805L136.349 84.727L135.463 85.035L132.962 85.6091L131.732 86.0311L130.593 86.6223L129.464 87.5922L128.597 88.8046L127.998 90.2306L127.913 92.4024L128.254 94.2636L129.276 97.4512L129.343 98.5601L128.817 99.488L128.235 100.159L125.183 101.921L124.331 102.104L123.67 102.008L122.931 101.662L122.326 100.774L121.949 99.9691L121.488 99.2377L120.927 98.8969L120.257 98.9021L118.865 99.3727L118.088 99.3111L117.129 98.927L115.867 98.1655L114.881 97.7946L113.9 97.8064L112.797 98.235L109.711 100.143L108.743 100.314L107.648 100.037L103.583 97.6504L102.268 96.2821L101.711 95.0907L101.467 93.7537L101.505 92.2884L101.775 90.3984L102.268 88.6211L103.234 85.9643L103.248 85.1058L102.9 84.4256L102.187 83.6824L101.292 83.1987L100.416 83.2826L99.606 83.702L97.851 85.17L96.5561 85.613L94.9977 85.6851L87.9671 84.4085L83.7925 82.702L84.3561 81.7635L84.9486 80.4188L85.0953 79.7438L85.039 79.1199L84.7598 78.4816L83.2473 76.0764L83.1621 75.7239L83.2905 75.3542L83.6313 74.8732L84.4151 74.0082L85.3601 72.4799L86.1767 70.43L86.4794 70.1377L86.9526 70.2098L87.4638 70.5689L88.7561 71.8534L89.5897 72.4052L90.3919 72.7407L91.3434 72.9216L93.2689 73.0684L94.088 73.2414L94.7932 73.552L95.3686 73.9492L95.8299 74.3516L96.2415 74.442L96.6465 74.1904L97.1459 73.3476L97.3635 72.5913L97.4014 71.8888L97.3346 71.3186L97.4578 70.9425L97.855 70.8337L98.3308 71.0421L99.4894 71.7341L103.288 73.4904L104.389 73.8273L105.276 73.8758L106.031 73.5455L106.699 72.915L107.196 72.1221L107.516 71.1561L107.554 70.312L107.402 69.4076L106.962 68.38L105.019 64.9474L104.671 63.9381L104.844 63.0626L105.49 62.2001L106.946 61.5474L107.971 61.512L108.945 61.7768L112.045 63.9447L112.62 64.1386L113.119 63.9211L113.701 63.2382L114.44 61.9773L115.11 61.2551L115.777 60.8252L116.388 60.6326L116.787 60.3403L116.915 59.816L116.801 59.1148L116.161 57.6166L116.009 56.1067L117.034 55.5759L117.833 55.5903L118.806 55.7843L119.652 56.3073L120.362 57.0648L121.522 58.9496L122.503 59.8959L123.706 60.3665L124.771 60.5709L126.091 60.4438Z"
              />
              </svg>

  
    